<svg xmlns="http://www.w3.org/2000/svg" width="454.4" height="161.9"><path fill="#00A87C" d="M75.3 114.9c.8 1 2.5 1 3.8 0 1.2-1 1.6-2.7.8-3.8-.8-1.1-2.5-1.1-3.8 0-1.3 1-1.7 2.7-.8 3.8M83.3 108.2c.9 1.2 2.8 1.2 4.1 0 1.4-1.1 1.7-3 .8-4.1-.9-1.1-2.8-1.2-4.1 0-1.4 1.1-1.7 2.9-.8 4.1M96.3 101.5c1.5-1.2 1.9-3.2.9-4.5-1-1.2-3-1.2-4.5 0s-1.9 3.2-.9 4.5c1.1 1.3 3.1 1.3 4.5 0M87.8 86.9c1 1.2 3 1.2 4.5 0s1.9-3.2.9-4.5c-1-1.2-3-1.2-4.5 0-1.5 1.3-1.9 3.3-.9 4.5M81.5 82.4c-1.5 1.2-1.9 3.2-.9 4.5 1 1.2 3 1.2 4.5 0s1.9-3.2.9-4.5c-1-1.2-3-1.2-4.5 0M74 86.7c.9 1.1 2.8 1.1 4.1 0 1.4-1.1 1.7-3 .8-4.1-.9-1.1-2.8-1.2-4.1 0-1.3 1.1-1.7 3-.8 4.1M79.3 94.1c.9 1.1 2.8 1.1 4.1 0 1.4-1.1 1.7-3 .8-4.1-.9-1.1-2.8-1.2-4.1 0-1.4 1.1-1.7 3-.8 4.1M67.2 121.5c.8.9 2.3 1 3.4 0 1.1-.9 1.4-2.5.7-3.4-.8-1-2.3-1-3.4 0-1.1.9-1.4 2.5-.7 3.4M72.4 94.1c.9 1.1 2.8 1.1 4.1 0 1.4-1.1 1.7-3 .8-4.1-.9-1.1-2.8-1.2-4.1 0-1.3 1.1-1.7 3-.8 4.1M68.8 97.4c-.8-1.1-2.5-1.1-3.8 0-1.2 1-1.6 2.7-.7 3.8.8 1 2.5 1.1 3.8 0 1.2-1.1 1.5-2.7.7-3.8M65.8 94c.8 1 2.5 1.1 3.8 0 1.2-1 1.6-2.7.7-3.8-.8-1-2.5-1.1-3.8 0-1.2 1-1.6 2.7-.7 3.8M71.1 101.2c.8 1 2.5 1 3.8 0 1.2-1 1.6-2.7.8-3.8-.8-1-2.5-1-3.8 0-1.3 1-1.6 2.7-.8 3.8M89.6 97.2c-.9-1.1-2.8-1.1-4.1 0-1.4 1.1-1.7 3-.8 4.1.9 1.1 2.8 1.2 4.1 0 1.3-1.1 1.7-2.9.8-4.1M68 82.6c-1.4 1.1-1.7 3-.8 4.1.9 1.1 2.8 1.1 4.1 0 1.4-1.1 1.7-3 .8-4.1-.9-1.1-2.8-1.1-4.1 0M63.4 90.2c-.8-1-2.5-1-3.8 0-1.2 1-1.6 2.7-.8 3.8.8 1 2.5 1.1 3.8 0 1.3-1.1 1.7-2.7.8-3.8M57.6 101c.8 1 2.3 1 3.4 0 1.1-.9 1.4-2.5.7-3.4-.8-1-2.3-1-3.4 0-1.2.9-1.5 2.4-.7 3.4M72.7 111.3c-.8-.9-2.3-1-3.4 0-1.1.9-1.4 2.5-.7 3.4.8.9 2.3 1 3.4 0 1.2-.9 1.5-2.5.7-3.4M63.1 107.8c.8.9 2.3.9 3.4 0s1.4-2.5.7-3.4c-.8-1-2.3-1-3.4 0-1.2 1-1.5 2.5-.7 3.4M81.8 101.4c1.4-1.1 1.7-3 .8-4.1-.9-1.1-2.8-1.2-4.1 0-1.4 1.1-1.7 3-.8 4.1.9 1.1 2.7 1.1 4.1 0M81.1 104.3c-.8-1-2.5-1-3.8 0-1.3 1-1.6 2.7-.8 3.8.8 1.1 2.5 1.1 3.8 0 1.3-1.1 1.7-2.8.8-3.8M90.4 94.3c1.5-1.2 1.9-3.2.9-4.5-1-1.2-3-1.3-4.5 0-1.5 1.2-1.9 3.2-.9 4.5 1 1.2 3 1.3 4.5 0M74.3 104.3c-.8-1-2.5-1.1-3.8 0-1.2 1-1.6 2.7-.7 3.8.8 1 2.5 1.1 3.8 0 1.2-1.1 1.5-2.8.7-3.8M59.2 128.2c.7.9 2.1.9 3.1 0 1-.8 1.3-2.2.6-3.1-.7-.9-2.1-.9-3.1 0s-1.3 2.2-.6 3.1M21.6 148c.4.5 1.1.5 1.7 0 .6-.5.7-1.2.3-1.7-.4-.5-1.1-.5-1.7 0-.5.5-.7 1.3-.3 1.7M10.6 134.3c.4.5 1.2.5 1.7 0 .6-.5.7-1.2.3-1.7-.4-.5-1.1-.5-1.7 0-.5.5-.7 1.3-.3 1.7M16.1 141.2c.4.5 1.1.5 1.7 0 .6-.5.7-1.2.3-1.7-.4-.5-1.1-.5-1.7 0-.5.5-.7 1.2-.3 1.7M20.5 154.7c.3.4.9.4 1.4 0 .5-.4.6-1 .3-1.4-.3-.4-.9-.4-1.4 0-.5.4-.6 1.1-.3 1.4M19.1 161.6c.3.4.9.4 1.4 0 .5-.4.6-1 .3-1.4-.3-.4-.9-.4-1.4 0-.5.4-.6 1-.3 1.4M15 147.9c.3.4.9.4 1.4 0 .5-.4.6-1 .3-1.4-.3-.4-.9-.4-1.4 0-.5.4-.6 1-.3 1.4M9.5 141c.3.4.9.4 1.4 0 .5-.4.6-1 .3-1.4-.3-.4-.9-.4-1.4 0-.5.4-.7 1-.3 1.4M18.6 127.7c.5.6 1.4.6 2.1 0 .7-.6.9-1.5.4-2.1-.5-.6-1.4-.6-2.1 0-.6.6-.8 1.5-.4 2.1M27.1 154.9c.4.5 1.1.5 1.7 0 .6-.5.7-1.2.3-1.7-.4-.5-1.1-.5-1.7 0-.5.5-.6 1.2-.3 1.7M61.7 114.7c.8 1 2.3 1 3.4 0 1.1-.9 1.4-2.5.7-3.4-.8-1-2.3-1-3.4 0-1.1.9-1.4 2.4-.7 3.4M24.1 134.5c.4.6 1.4.6 2.1 0 .7-.6.9-1.5.4-2.1-.5-.6-1.4-.6-2.1 0-.6.6-.8 1.6-.4 2.1M17.5 134.4c.4.5 1.1.5 1.7 0 .6-.5.7-1.2.3-1.7-.4-.5-1.1-.5-1.7 0-.5.4-.7 1.2-.3 1.7M23 141.2c.4.5 1.1.5 1.7 0 .6-.5.7-1.2.3-1.7-.4-.5-1.1-.5-1.7 0-.5.5-.7 1.2-.3 1.7M29.7 141.4c.5.6 1.4.6 2.1 0 .7-.6.9-1.5.4-2.1-.5-.6-1.4-.6-2.1 0-.7.6-.9 1.5-.4 2.1M.1 154.5c.2.3.6.3 1 0 .3-.3.4-.7.2-.9-.2-.3-.7-.3-1 0-.3.2-.4.7-.2.9M5.6 161.4c.2.3.7.3 1 0 .3-.3.4-.7.2-.9-.2-.3-.7-.3-1 0-.3.2-.4.6-.2.9M13.6 154.7c.3.4.9.4 1.4 0 .5-.4.6-1 .3-1.4-.3-.4-.9-.4-1.4 0-.5.4-.6 1.1-.3 1.4M2.6 141c.3.4.9.4 1.4 0s.6-1 .3-1.4c-.3-.4-.9-.4-1.4 0-.5.4-.6 1.1-.3 1.4M8.1 147.9c.3.4.9.4 1.4 0 .5-.4.6-1 .3-1.4-.3-.4-.9-.4-1.4 0-.5.4-.6 1-.3 1.4M1.5 147.7c.2.3.6.3 1 0 .3-.3.4-.7.2-.9-.2-.3-.7-.3-1 0-.4.2-.4.6-.2.9M7 154.5c.2.3.6.3 1 0 .3-.3.4-.7.2-.9-.2-.3-.7-.2-1 0-.4.2-.4.7-.2.9M12.5 161.4c.2.3.6.3 1 0 .3-.3.4-.7.2-.9-.2-.3-.7-.3-1 0-.3.2-.4.6-.2.9M28.5 148c.4.5 1.1.5 1.7 0 .6-.5.7-1.2.3-1.7-.4-.5-1.1-.5-1.7 0-.5.5-.7 1.3-.3 1.7M47.1 121.2c.6.8 1.8.8 2.7 0 .9-.8 1.2-2 .6-2.8-.6-.8-1.8-.8-2.7 0-1 .8-1.3 2-.6 2.8M48.2 114.5c.7.9 2.1.9 3.1 0s1.3-2.2.6-3.1c-.7-.9-2.1-.9-3.1 0s-1.3 2.3-.6 3.1M42.7 107.7c.7.9 2.1.9 3.1 0s1.3-2.2.6-3.1c-.7-.9-2.1-.9-3.1 0-1 .8-1.3 2.2-.6 3.1M52.5 128c.6.8 1.8.8 2.7 0 .9-.8 1.2-2 .6-2.7-.6-.8-1.8-.8-2.7 0-.9.7-1.2 2-.6 2.7M41.5 114.4c.6.7 1.8.8 2.7 0 .9-.8 1.2-2 .6-2.7-.6-.8-1.8-.8-2.7 0-.9.7-1.2 1.9-.6 2.7M51.2 134.9c.6.8 1.8.8 2.7 0 .9-.8 1.2-2 .6-2.7-.6-.8-1.8-.8-2.8 0-.9.7-1.1 1.9-.5 2.7M45.7 128c.6.8 1.8.8 2.7 0 .9-.8 1.2-2 .5-2.7-.6-.8-1.8-.8-2.7 0-.9.7-1.1 2-.5 2.7M50.7 101c.8 1 2.3 1 3.4 0 1.1-.9 1.4-2.5.7-3.4-.8-1-2.3-1-3.4 0-1.1.9-1.4 2.4-.7 3.4M60.6 121.4c.7.9 2.1.9 3.1 0s1.3-2.2.6-3.1c-.7-.8-2.1-.9-3.1 0-1 .8-1.3 2.2-.6 3.1M56.2 107.8c.8.9 2.3 1 3.4 0 1.1-.9 1.4-2.5.7-3.4-.8-1-2.3-1-3.4 0s-1.4 2.5-.7 3.4M53.7 121.4c.7.9 2.1.9 3.1 0 1-.8 1.3-2.2.6-3.1-.7-.9-2.1-.9-3.1 0-1 .8-1.3 2.2-.6 3.1M55.1 114.5c.7.9 2.1.9 3.1 0 1-.8 1.3-2.2.6-3.1-.7-.9-2.1-.9-3.1 0s-1.3 2.3-.6 3.1M49.6 107.7c.7.9 2.1.9 3.1 0 1-.8 1.3-2.2.6-3.1-.7-.9-2.1-.9-3.1 0-1 .8-1.3 2.2-.6 3.1M32.2 127.9c.5.7 1.6.7 2.4 0 .8-.7 1-1.7.5-2.4s-1.6-.7-2.4 0c-.8.6-1.1 1.7-.5 2.4M36.5 141.4c.5.6 1.4.6 2.1 0 .7-.6.9-1.5.4-2.1-.5-.6-1.4-.6-2.1 0-.7.6-.8 1.5-.4 2.1M37.7 134.7c.5.7 1.6.7 2.4 0 .8-.7 1-1.7.5-2.4s-1.6-.7-2.4 0c-.8.7-1.1 1.7-.5 2.4M26.7 121c.5.7 1.6.7 2.4 0 .8-.7 1-1.7.5-2.4s-1.6-.7-2.4 0c-.9.7-1.1 1.8-.5 2.4M35.1 148.2c.5.6 1.4.6 2.1 0 .7-.6.9-1.5.4-2.1-.5-.6-1.4-.6-2.1 0-.6.6-.8 1.6-.4 2.1M31 134.5c.5.6 1.4.6 2.1 0 .7-.6.9-1.5.4-2.1-.5-.6-1.4-.6-2.1 0-.7.6-.9 1.6-.4 2.1M25.5 127.7c.4.6 1.4.6 2.1 0 .7-.6.9-1.5.4-2.1-.5-.6-1.4-.6-2.1 0-.7.6-.9 1.5-.4 2.1M33.5 121c.5.7 1.6.7 2.4 0 .8-.7 1-1.7.5-2.4s-1.6-.7-2.4 0c-.8.7-1 1.8-.5 2.4M43.2 141.5c.5.7 1.6.7 2.4 0 .8-.7 1-1.7.5-2.4s-1.6-.7-2.4 0c-.8.7-1.1 1.8-.5 2.4M34.7 114.3c.6.8 1.8.8 2.7 0 .9-.8 1.2-2 .5-2.8-.6-.8-1.8-.8-2.7 0-.9.9-1.1 2.1-.5 2.8M44.5 134.7c.5.7 1.6.7 2.4 0 .8-.7 1-1.7.5-2.4s-1.6-.7-2.4 0c-.8.7-1 1.7-.5 2.4M40.2 121.2c.6.8 1.8.8 2.7 0 .9-.8 1.2-2 .5-2.7-.6-.8-1.8-.8-2.7 0-.9.7-1.1 1.9-.5 2.7M39 127.9c.5.7 1.6.7 2.4 0 .8-.7 1-1.7.5-2.4s-1.6-.7-2.4 0c-.8.6-1 1.7-.5 2.4M88.1 50.8c.8 1 2.5 1 3.7 0 1.2-1 1.5-2.7.7-3.8-.8-1-2.5-1-3.7 0-1.2 1.1-1.5 2.8-.7 3.8M93.7 57.8c.9 1.1 2.8 1.1 4.1 0 1.4-1.1 1.7-3 .8-4.1-.9-1.1-2.8-1.1-4.1 0-1.4 1.1-1.7 3-.8 4.1M100.5 60.4c-1.5 1.2-1.8 3.2-.9 4.5 1 1.2 3 1.2 4.5 0s1.8-3.2.9-4.5c-1-1.3-3-1.3-4.5 0M89.3 79.5c1 1.2 3 1.2 4.5 0s1.9-3.2.9-4.5c-1-1.2-3-1.2-4.5 0-1.6 1.3-1.9 3.2-.9 4.5M86.5 79.5c1.5-1.2 1.8-3.2.8-4.5-1-1.2-3-1.2-4.5 0s-1.9 3.2-.9 4.5c1.2 1.2 3.2 1.2 4.6 0M75.4 79.3c.9 1.1 2.8 1.1 4.1 0 1.4-1.1 1.7-3 .8-4.1-.9-1.1-2.8-1.1-4.1 0-1.4 1.1-1.7 3-.8 4.1M83.9 71.9c.9 1.1 2.8 1.1 4.1 0 1.4-1.1 1.7-3 .8-4.1-.9-1.1-2.8-1.1-4.1 0-1.4 1.1-1.8 3-.8 4.1M82.7 43.8c.8.9 2.3.9 3.4 0 1.1-1 1.4-2.5.7-3.4-.8-.9-2.3-.9-3.4 0s-1.4 2.4-.7 3.4M77 71.9c.9 1.1 2.8 1.1 4.1 0 1.4-1.1 1.7-3 .8-4.1-.9-1.1-2.8-1.1-4.1 0-1.4 1.1-1.7 3-.8 4.1M76.2 60.7c-.8-1-2.5-1-3.8 0-1.2 1-1.6 2.7-.7 3.8.8 1 2.5 1 3.8 0 1.3-1.1 1.6-2.8.7-3.8M70.3 71.7c.8 1 2.5 1 3.8 0 1.2-1.1 1.6-2.7.7-3.8-.8-1-2.5-1-3.8 0-1.2 1.1-1.5 2.8-.7 3.8M78.6 64.5c.8 1 2.5 1 3.8 0 1.2-1 1.6-2.7.7-3.8-.8-1-2.5-1-3.8 0-1.2 1.1-1.5 2.8-.7 3.8M97.3 60.5c-.9-1.1-2.8-1.1-4.1 0-1.3 1.1-1.7 3-.8 4.1.9 1.1 2.8 1.1 4.1 0 1.4-1.1 1.8-2.9.8-4.1M72.6 79.3c1.4-1.1 1.7-3 .8-4.1-.9-1.1-2.8-1.1-4.1 0-1.3 1.1-1.7 3-.8 4.1.9 1.1 2.8 1.1 4.1 0M67.9 67.9c-.8-1-2.5-1-3.8 0-1.2 1-1.6 2.7-.7 3.8.8 1 2.5 1 3.8 0 1.3-1 1.6-2.7.7-3.8M65.1 64.3c.8.9 2.3.9 3.4 0 1.1-1 1.4-2.5.7-3.4-.8-.9-2.3-.9-3.4 0-1.2.9-1.5 2.5-.7 3.4M85.5 47.2c-.8-.9-2.3-.9-3.4 0-1.1 1-1.4 2.5-.7 3.4.8.9 2.3.9 3.4 0 1.2-.9 1.5-2.5.7-3.4M73.2 57.5c.8.9 2.3.9 3.4 0 1.1-1 1.4-2.5.6-3.4-.8-.9-2.3-.9-3.4 0-1 .9-1.3 2.4-.6 3.4M86.1 60.5c-1.4 1.1-1.7 3-.8 4.1.9 1.1 2.8 1.1 4.1 0 1.4-1.1 1.7-3 .8-4.1-.9-1.1-2.8-1.1-4.1 0M91.3 53.9c-.8-1-2.5-1-3.8 0-1.2 1.1-1.6 2.7-.7 3.8.8 1 2.5 1 3.8 0 1.2-1.1 1.5-2.8.7-3.8M91.5 67.6c-1.5 1.2-1.9 3.2-.9 4.5 1 1.2 3 1.2 4.5 0s1.9-3.2.8-4.5c-.9-1.2-2.9-1.2-4.4 0M84.4 53.9c-.8-1-2.5-1-3.8 0-1.2 1-1.6 2.7-.7 3.8.8 1 2.5 1 3.8 0 1.2-1.1 1.6-2.8.7-3.8M77.4 36.8c.7.8 2.1.8 3.1 0 1-.9 1.3-2.2.6-3.1-.7-.8-2.1-.9-3.1 0-1.1.8-1.3 2.2-.6 3.1M47.7 15.5c.4.5 1.1.5 1.7 0 .6-.5.7-1.2.3-1.7-.4-.5-1.1-.5-1.7 0-.5.5-.6 1.3-.3 1.7M31.4 29.2c.4.5 1.1.5 1.7 0 .6-.5.7-1.2.3-1.7-.4-.5-1.2-.5-1.7 0-.6.5-.7 1.3-.3 1.7M39.6 22.4c.4.5 1.1.5 1.7 0 .6-.5.7-1.2.3-1.7-.4-.5-1.2-.5-1.7 0-.6.5-.7 1.2-.3 1.7M49.2 8.5c.3.4.9.4 1.4 0 .5-.4.6-1 .3-1.4-.3-.4-.9-.4-1.4 0-.4.4-.6 1.1-.3 1.4M50.6 1.7c.3.4.9.4 1.4 0 .5-.4.6-1 .3-1.4-.3-.4-.9-.4-1.4 0-.5.4-.7 1-.3 1.4M41.1 15.4c.3.4.9.4 1.4 0 .5-.4.6-1 .3-1.4-.3-.4-.9-.4-1.4 0-.5.4-.6 1-.3 1.4M32.9 22.2c.3.4.9.4 1.4 0 .4-.4.6-1 .3-1.4-.3-.4-.9-.4-1.4 0-.5.4-.6 1.1-.3 1.4M36.7 36.3c.5.6 1.4.6 2.1 0 .7-.6.9-1.5.4-2.1-.5-.6-1.4-.6-2.1 0-.6.6-.8 1.5-.4 2.1M55.9 8.7c.4.5 1.2.5 1.7 0 .6-.5.8-1.3.4-1.7-.4-.5-1.1-.5-1.7 0-.6.5-.8 1.2-.4 1.7M74.5 50.6c.8.9 2.3.9 3.4 0 1.1-1 1.4-2.5.6-3.4-.8-.9-2.3-.9-3.4 0-1 1-1.3 2.5-.6 3.4M44.9 29.4c.5.6 1.4.6 2.1 0 .7-.6.9-1.5.4-2.1-.5-.6-1.4-.6-2.1 0-.7.6-.8 1.6-.4 2.1M38.3 29.2c.4.5 1.1.5 1.7 0 .6-.5.7-1.2.3-1.7-.4-.5-1.1-.5-1.7 0-.6.5-.7 1.3-.3 1.7M46.4 22.4c.4.5 1.1.5 1.7 0 .6-.5.7-1.2.3-1.7-.4-.5-1.2-.5-1.7 0s-.6 1.2-.3 1.7M53.1 22.6c.5.6 1.4.6 2.1 0 .7-.6.9-1.5.4-2.1-.5-.6-1.4-.6-2.1 0-.7.6-.8 1.5-.4 2.1M28.9 8.3c.2.3.7.3 1 0 .3-.3.4-.7.1-.9-.2-.3-.7-.2-1 0-.3.2-.3.7-.1.9M37.1 1.4c.2.3.7.3 1 0 .3-.3.4-.7.2-.9-.2-.3-.7-.3-1 0-.4.3-.5.7-.2.9M42.4 8.5c.3.4.9.4 1.4 0 .5-.4.6-1 .3-1.4-.3-.4-.9-.4-1.4 0-.5.4-.6 1-.3 1.4M26 22.2c.3.4.9.4 1.4 0 .5-.4.6-1 .3-1.4-.3-.4-.9-.4-1.4 0-.5.4-.6 1.1-.3 1.4M34.2 15.4c.3.4.9.4 1.4 0 .5-.4.6-1 .3-1.4-.3-.4-.9-.4-1.4 0-.5.4-.6 1-.3 1.4M27.6 15.2c.2.2.7.3 1 0 .3-.3.4-.7.2-.9-.2-.3-.7-.2-1 0-.4.2-.5.6-.2.9M35.7 8.3c.2.3.7.3 1 0 .3-.3.4-.7.2-.9-.2-.3-.7-.2-1 0-.3.2-.4.6-.2.9M43.9 1.4c.2.2.7.3 1 0 .3-.3.4-.7.2-.9-.2-.3-.7-.3-1 0-.3.3-.4.7-.2.9M54.6 15.5c.4.5 1.1.5 1.7 0 .6-.5.7-1.2.3-1.7-.4-.5-1.2-.5-1.7 0s-.7 1.3-.3 1.7M62.5 43.5c.6.8 1.8.8 2.7 0 .9-.8 1.1-2 .5-2.7-.6-.8-1.8-.8-2.7 0-.9.7-1.1 1.9-.5 2.7M61 50.5c.7.9 2.1.8 3.1 0s1.3-2.2.6-3.1c-.7-.8-2.1-.8-3.1 0s-1.3 2.2-.6 3.1M52.8 57.3c.7.8 2.1.8 3.1 0 1-.9 1.3-2.2.6-3.1-.7-.9-2.1-.8-3.1 0-1 .9-1.3 2.3-.6 3.1M70.7 36.6c.6.8 1.8.8 2.7 0 .9-.8 1.1-2 .5-2.7-.6-.8-1.8-.8-2.7 0-.9.7-1.1 2-.5 2.7M54.3 50.3c.6.8 1.8.7 2.8 0 .9-.8 1.1-2 .5-2.8-.6-.8-1.9-.7-2.7 0-.9.8-1.2 2-.6 2.8M72 29.8c.6.8 1.8.8 2.8 0 .9-.8 1.1-2 .5-2.8-.6-.7-1.8-.7-2.7 0-1 .8-1.2 2-.6 2.8M63.8 36.6c.6.8 1.8.8 2.7 0 .9-.8 1.1-2 .5-2.7-.6-.8-1.8-.7-2.7 0-.8.7-1.1 2-.5 2.7M58.2 64.3c.8.9 2.3.9 3.4 0 1.1-1 1.4-2.5.7-3.4-.8-.9-2.3-.9-3.4 0-1.2.9-1.5 2.5-.7 3.4M76.1 43.6c.7.8 2.1.8 3.1 0 1-.9 1.3-2.2.6-3.1-.7-.9-2.1-.9-3.1 0-1.1.9-1.3 2.3-.6 3.1M66.4 57.5c.8 1 2.3.9 3.4 0s1.4-2.5.6-3.4c-.8-.9-2.3-.9-3.4 0s-1.4 2.4-.6 3.4M69.2 43.6c.7.8 2.1.9 3.1 0s1.3-2.2.6-3.1c-.7-.9-2.1-.8-3.1 0-1 .9-1.3 2.3-.6 3.1M67.9 50.5c.7.9 2.1.8 3.1 0 1-.9 1.3-2.2.6-3.1-.7-.9-2.1-.8-3.1 0s-1.3 2.2-.6 3.1M59.7 57.3c.7.8 2.1.8 3.1 0 1-.9 1.3-2.2.6-3.1-.7-.9-2.1-.9-3.1 0s-1.3 2.3-.6 3.1M50.3 36.4c.5.7 1.6.7 2.4 0 .8-.7 1-1.7.5-2.4s-1.6-.7-2.4 0c-.8.7-1.1 1.8-.5 2.4M60 22.6c.5.6 1.4.6 2.1 0 .7-.6.9-1.5.4-2.1-.5-.6-1.4-.6-2.1 0-.7.6-.9 1.5-.4 2.1M58.5 29.6c.5.7 1.6.7 2.4 0 .8-.7 1-1.7.5-2.4s-1.6-.7-2.4 0c-.9.7-1.1 1.7-.5 2.4M42.1 43.3c.5.7 1.6.7 2.4 0 .8-.7 1-1.7.5-2.4s-1.6-.7-2.4 0c-.8.6-1 1.7-.5 2.4M61.3 15.7c.5.6 1.4.6 2.1 0 .7-.6.9-1.5.4-2.1-.5-.6-1.4-.6-2.1 0-.7.6-.9 1.6-.4 2.1M51.8 29.4c.5.6 1.4.6 2.1 0 .7-.6.9-1.5.4-2.1-.5-.6-1.4-.6-2.1 0-.7.6-.9 1.6-.4 2.1M43.6 36.3c.5.6 1.4.6 2.1 0 .7-.6.8-1.5.4-2.1-.5-.6-1.4-.6-2.1 0-.7.6-.8 1.5-.4 2.1M49 43.3c.5.7 1.6.7 2.4 0 .8-.7 1-1.8.5-2.4-.5-.7-1.6-.7-2.4 0-.9.6-1.1 1.7-.5 2.4M66.6 22.8c.5.7 1.6.7 2.4 0 .8-.7 1-1.7.5-2.4s-1.6-.7-2.4 0c-.8.6-1 1.7-.5 2.4M47.5 50.3c.6.8 1.9.8 2.8 0 .9-.8 1.1-2 .5-2.8-.6-.7-1.8-.7-2.7 0-1 .8-1.2 2-.6 2.8M65.3 29.6c.5.7 1.6.7 2.4 0 .8-.7 1-1.7.5-2.4s-1.6-.7-2.4 0c-.8.7-1 1.7-.5 2.4M55.6 43.5c.6.8 1.8.8 2.8 0 .9-.8 1.1-2 .5-2.7-.6-.8-1.8-.8-2.7 0-.9.7-1.2 1.9-.6 2.7M57.2 36.4c.5.7 1.6.7 2.4 0 .8-.7 1-1.8.5-2.4-.5-.7-1.6-.7-2.4 0-.9.7-1.1 1.8-.5 2.4M105.9 67.4c-1.6 1.3-2 3.5-1 4.8 1.1 1.3 3.2 1.3 4.8 0 1.6-1.3 2-3.5 1-4.8-1.1-1.3-3.2-1.3-4.8 0M105.2 94.5c1.6-1.3 2-3.5.9-4.8-1.1-1.3-3.2-1.3-4.8 0-1.6 1.3-2 3.5-.9 4.8 1.1 1.3 3.2 1.3 4.8 0M102.8 82.3c-1.6 1.3-2 3.5-.9 4.8 1.1 1.3 3.2 1.3 4.8 0 1.6-1.3 2-3.5.9-4.8-1-1.4-3.2-1.4-4.8 0M104.3 74.8c-1.6 1.3-2 3.5-.9 4.8 1.1 1.3 3.2 1.3 4.8 0 1.6-1.3 2-3.5.9-4.8-1-1.3-3.2-1.3-4.8 0"/><path fill="#00A87C" d="M95.7 82.3c-1.6 1.3-2 3.5-.9 4.8 1.1 1.3 3.2 1.3 4.8 0 1.6-1.3 2-3.5.9-4.8-1-1.4-3.2-1.4-4.8 0M97.3 74.8c-1.6 1.3-2 3.5-.9 4.8 1.1 1.3 3.2 1.3 4.8 0 1.6-1.3 2-3.5.9-4.8-1.1-1.3-3.2-1.3-4.8 0M98.8 67.4c-1.6 1.3-2 3.5-.9 4.8 1.1 1.3 3.2 1.3 4.8 0 1.6-1.3 2-3.5.9-4.8-1-1.3-3.2-1.3-4.8 0"/><path fill="#00A87C" d="M94.2 89.7c-1.6 1.3-2 3.5-.9 4.8 1.1 1.3 3.2 1.3 4.8 0 1.6-1.3 2-3.5.9-4.8-1.1-1.4-3.2-1.3-4.8 0"/><path fill="#A7A9AC" d="M135.9 47c-.8-1-2.5-1.1-3.8 0-1.2 1-1.6 2.7-.8 3.8.8 1 2.5 1.1 3.8 0 1.3-1 1.7-2.7.8-3.8M127.7 53.7c-.9-1.1-2.8-1.1-4.1 0-1.4 1.1-1.7 3-.8 4.1.9 1.1 2.8 1.2 4.1 0 1.3-1.1 1.7-3 .8-4.1M123.4 75c-1-1.2-3-1.2-4.5 0s-1.9 3.2-.9 4.5c1 1.2 3 1.2 4.5 0 1.5-1.3 1.9-3.2.9-4.5M129.6 79.5c1.5-1.2 1.9-3.2.9-4.5-1-1.2-3-1.2-4.5 0s-1.9 3.2-.9 4.5c1 1.2 3 1.2 4.5 0M137.2 75.2c-.9-1.1-2.8-1.1-4.1 0-1.4 1.1-1.7 3-.8 4.1.9 1.1 2.8 1.2 4.1 0 1.3-1.1 1.7-3 .8-4.1M131.9 67.8c-.9-1.1-2.8-1.1-4.1 0-1.4 1.1-1.7 3-.8 4.1.9 1.1 2.8 1.2 4.1 0 1.3-1.1 1.7-3 .8-4.1M143.9 40.4c-.8-1-2.3-1-3.4 0-1.1.9-1.4 2.5-.7 3.4.8 1 2.3 1 3.4 0 1.2-.9 1.5-2.5.7-3.4M138.7 67.8c-.9-1.1-2.8-1.1-4.1 0-1.4 1.1-1.7 3-.8 4.1.9 1.1 2.8 1.2 4.1 0 1.4-1.1 1.7-3 .8-4.1M142.4 64.5c.8 1.1 2.5 1.1 3.8 0 1.2-1 1.6-2.7.7-3.8-.8-1-2.5-1-3.8 0-1.2 1-1.5 2.7-.7 3.8M145.4 67.9c-.8-1.1-2.5-1.1-3.8 0-1.2 1-1.6 2.7-.7 3.8.8 1 2.5 1.1 3.8 0 1.2-1 1.5-2.7.7-3.8M140.1 60.7c-.8-1-2.5-1-3.8 0-1.2 1-1.6 2.7-.8 3.8.8 1 2.5 1.1 3.8 0 1.3-1 1.6-2.7.8-3.8M121.4 64.7c.9 1.1 2.8 1.2 4.1 0 1.4-1.1 1.7-3 .8-4.1-.9-1.1-2.8-1.2-4.1 0-1.4 1.1-1.8 2.9-.8 4.1M143.2 79.3c1.4-1.1 1.7-3 .8-4.1-.9-1.1-2.8-1.1-4.1 0-1.4 1.1-1.7 3-.8 4.1.9 1.1 2.7 1.1 4.1 0M147.7 71.7c.8 1 2.5 1.1 3.8 0 1.2-1 1.6-2.7.8-3.8-.8-1.1-2.5-1.1-3.8 0-1.3 1.1-1.6 2.8-.8 3.8M153.6 60.9c-.8-1-2.3-1-3.4 0-1.1.9-1.4 2.5-.7 3.4.8 1 2.3 1 3.4 0 1.1-.9 1.4-2.5.7-3.4M138.5 50.6c.8.9 2.3 1 3.4 0 1.1-.9 1.4-2.5.7-3.4-.8-.9-2.3-1-3.4 0-1.2.9-1.5 2.5-.7 3.4M148.1 54c-.8-.9-2.3-1-3.4 0-1.1.9-1.4 2.5-.7 3.4.8 1 2.3 1 3.4 0 1.1-.9 1.4-2.4.7-3.4M129.3 60.5c-1.4 1.1-1.7 3-.8 4.1.9 1.1 2.7 1.2 4.1 0 1.4-1.1 1.7-3 .8-4.1-.9-1.1-2.8-1.1-4.1 0M130 57.6c.8 1 2.5 1.1 3.8 0 1.2-1 1.6-2.7.8-3.8-.8-1-2.5-1.1-3.8 0-1.3 1.1-1.6 2.8-.8 3.8M120.5 67.6c-1.5 1.2-1.9 3.2-.9 4.5 1 1.2 3 1.2 4.5 0s1.9-3.2.9-4.5c-1-1.2-3-1.2-4.5 0M136.9 57.6c.8 1 2.5 1.1 3.8 0 1.3-1 1.6-2.7.7-3.8-.8-1-2.5-1.1-3.8 0-1.2 1.1-1.5 2.8-.7 3.8M152 33.7c-.7-.9-2.1-.9-3.1 0-1 .8-1.3 2.2-.6 3.1.7.9 2.1.9 3.1 0s1.2-2.3.6-3.1M189.5 13.8c-.4-.5-1.1-.5-1.7 0-.6.5-.7 1.2-.3 1.7.4.5 1.1.5 1.7 0 .6-.4.7-1.2.3-1.7M200.5 27.5c-.4-.5-1.1-.5-1.7 0-.6.5-.7 1.2-.3 1.7.4.5 1.1.5 1.7 0 .6-.4.7-1.2.3-1.7M195 20.7c-.4-.5-1.1-.5-1.7 0-.6.5-.7 1.2-.3 1.7.4.5 1.1.5 1.7 0 .6-.5.7-1.2.3-1.7M190.7 7.1c-.3-.4-.9-.4-1.4 0-.5.4-.6 1-.3 1.4.3.4.9.4 1.4 0 .5-.3.6-1 .3-1.4M192.1.3c-.3-.4-.9-.4-1.4 0-.5.4-.6 1-.3 1.4.3.4.9.4 1.4 0 .5-.4.6-1 .3-1.4M196.2 14c-.3-.4-.9-.4-1.4 0-.5.4-.6 1-.3 1.4.3.4.9.4 1.4 0 .5-.4.6-1 .3-1.4M201.7 20.9c-.3-.4-.9-.4-1.4 0-.5.4-.6 1-.3 1.4.3.4.9.4 1.4 0 .5-.4.6-1.1.3-1.4M192.5 34.2c-.5-.6-1.4-.6-2.1 0-.7.6-.9 1.5-.4 2.1.5.6 1.4.6 2.1 0 .7-.6.9-1.5.4-2.1M184 7c-.4-.5-1.1-.5-1.7 0-.6.5-.7 1.2-.3 1.7.4.5 1.1.5 1.7 0 .6-.5.7-1.2.3-1.7M149.4 47.2c-.8-.9-2.3-1-3.4 0-1.1.9-1.4 2.5-.7 3.4.8 1 2.3 1 3.4 0 1.2-.9 1.5-2.4.7-3.4M187 27.4c-.4-.6-1.4-.6-2.1 0-.7.6-.9 1.5-.4 2.1.5.6 1.4.6 2.1 0 .7-.6.9-1.6.4-2.1M193.7 27.5c-.4-.5-1.1-.5-1.7 0-.6.5-.7 1.2-.3 1.7.4.5 1.2.5 1.7 0 .5-.4.7-1.2.3-1.7M188.2 20.7c-.4-.5-1.1-.5-1.7 0-.6.5-.7 1.2-.3 1.7.4.5 1.1.5 1.7 0 .5-.5.7-1.2.3-1.7M181.5 20.5c-.5-.6-1.4-.6-2.1 0-.7.6-.9 1.5-.4 2.1.5.6 1.4.6 2.1 0 .7-.6.9-1.5.4-2.1M211 7.4c-.2-.3-.6-.3-1 0-.3.3-.4.7-.2.9.2.3.7.3 1 0 .4-.3.5-.7.2-.9M205.5.5c-.2-.3-.7-.3-1 0-.3.3-.4.7-.2.9.2.3.7.3 1 0 .4-.2.5-.6.2-.9M197.6 7.1c-.3-.4-.9-.4-1.4 0-.5.4-.6 1-.3 1.4.3.4.9.4 1.4 0 .4-.4.6-1 .3-1.4M208.6 20.9c-.3-.4-.9-.4-1.4 0-.5.4-.6 1-.3 1.4.3.4.9.4 1.4 0 .5-.4.6-1.1.3-1.4M203.1 14c-.3-.4-.9-.4-1.4 0-.5.4-.6 1-.3 1.4.3.4.9.4 1.4 0 .5-.4.6-1 .3-1.4M209.7 14.2c-.2-.3-.6-.3-1 0-.3.3-.4.7-.2.9.2.3.7.3 1 0 .3-.2.4-.6.2-.9M204.2 7.4c-.2-.3-.6-.3-1 0-.3.3-.4.7-.2.9.2.3.7.3 1 0 .3-.3.4-.7.2-.9M198.7.5c-.2-.3-.6-.3-1 0-.3.3-.4.7-.2.9.2.3.7.2 1 0 .3-.2.4-.6.2-.9M182.7 13.8c-.4-.5-1.1-.5-1.7 0-.6.5-.7 1.2-.3 1.7.4.5 1.1.5 1.7 0 .5-.4.6-1.2.3-1.7M164.1 40.7c-.6-.8-1.8-.8-2.7 0-.9.8-1.2 2-.6 2.7.6.8 1.8.8 2.8 0 .9-.7 1.1-1.9.5-2.7M163 47.4c-.7-.9-2.1-.9-3.1 0-1 .8-1.3 2.2-.6 3.1.7.9 2.1.9 3.1 0s1.2-2.3.6-3.1M168.5 54.2c-.7-.9-2.1-.9-3.1 0s-1.3 2.2-.6 3.1c.7.9 2.1.9 3.1 0 1-.8 1.2-2.2.6-3.1M158.6 33.9c-.6-.8-1.8-.8-2.7 0-.9.8-1.2 2-.5 2.7.6.8 1.8.8 2.7 0 .9-.7 1.1-2 .5-2.7M169.6 47.5c-.6-.7-1.8-.8-2.7 0-.9.8-1.2 2-.5 2.7.6.8 1.8.8 2.7 0 .9-.7 1.1-1.9.5-2.7M160 27c-.6-.8-1.8-.8-2.7 0-.9.8-1.2 2-.5 2.8.6.8 1.8.8 2.7 0 .8-.8 1.1-2 .5-2.8M165.5 33.9c-.6-.8-1.8-.8-2.7 0-.9.8-1.2 2-.6 2.7.6.8 1.8.8 2.8 0 .8-.7 1.1-2 .5-2.7M160.4 60.9c-.8-1-2.3-1-3.4 0-1.1.9-1.4 2.5-.7 3.4.8 1 2.3 1 3.4 0 1.2-.9 1.5-2.5.7-3.4M150.6 40.5c-.7-.9-2.1-.9-3.1 0s-1.3 2.2-.6 3.1c.7.9 2.1.9 3.1 0 1-.8 1.3-2.2.6-3.1M154.9 54c-.8-1-2.3-1-3.4 0-1.1.9-1.4 2.5-.7 3.4.8.9 2.3 1 3.4 0 1.2-.9 1.5-2.4.7-3.4M157.5 40.5c-.7-.9-2.1-.9-3.1 0-1 .8-1.3 2.2-.6 3.1.7.9 2.1.9 3.1 0 1-.8 1.2-2.2.6-3.1M156.1 47.4c-.7-.9-2.1-.9-3.1 0-1 .8-1.3 2.2-.6 3.1.7.9 2.1.9 3.1 0s1.3-2.3.6-3.1M161.6 54.2c-.7-.9-2.1-.9-3.1 0-1 .8-1.3 2.2-.6 3.1.7.9 2.1.9 3.1 0 1-.8 1.3-2.2.6-3.1M179 34c-.5-.7-1.6-.7-2.4 0-.8.7-1 1.7-.5 2.4s1.6.7 2.4 0c.8-.6 1-1.7.5-2.4M174.7 20.5c-.5-.6-1.4-.6-2.1 0-.7.6-.9 1.5-.4 2.1.5.6 1.4.6 2.1 0 .6-.6.8-1.5.4-2.1M173.5 27.2c-.5-.7-1.6-.7-2.4 0-.8.7-1 1.7-.5 2.4s1.6.7 2.4 0c.8-.7 1-1.7.5-2.4M184.5 40.9c-.5-.7-1.6-.7-2.4 0-.8.7-1 1.7-.5 2.4s1.6.7 2.4 0c.8-.7 1-1.8.5-2.4M176 13.7c-.5-.6-1.4-.6-2.1 0-.7.6-.9 1.5-.4 2.1.5.6 1.4.6 2.1 0 .7-.6.9-1.6.4-2.1M180.2 27.4c-.5-.6-1.4-.6-2.1 0-.7.6-.9 1.5-.4 2.1.5.6 1.4.6 2.1 0 .6-.6.8-1.6.4-2.1M185.7 34.2c-.4-.6-1.4-.6-2.1 0-.7.6-.9 1.5-.4 2.1.5.6 1.4.6 2.1 0 .6-.6.8-1.5.4-2.1M177.6 40.9c-.5-.7-1.6-.7-2.4 0-.8.7-1 1.7-.5 2.4s1.6.7 2.4 0c.9-.7 1.1-1.8.5-2.4M168 20.3c-.5-.7-1.6-.7-2.4 0-.8.7-1 1.7-.5 2.4s1.6.7 2.4 0c.8-.6 1-1.7.5-2.4M176.5 47.5c-.6-.8-1.8-.8-2.7 0-.9.8-1.2 2-.5 2.8.6.8 1.8.8 2.7 0 .8-.8 1.1-2 .5-2.8M166.6 27.2c-.5-.7-1.6-.7-2.4 0-.8.7-1 1.7-.5 2.4s1.6.7 2.4 0c.9-.7 1.1-1.7.5-2.4M171 40.7c-.6-.8-1.8-.8-2.7 0-.9.8-1.2 2-.6 2.7.6.8 1.8.8 2.8 0 .8-.7 1.1-1.9.5-2.7M172.1 34c-.5-.7-1.6-.7-2.4 0-.8.7-1 1.7-.5 2.4s1.6.7 2.4 0c.9-.6 1.1-1.7.5-2.4M123 111.1c-.8-1-2.5-1-3.8 0-1.2 1-1.6 2.7-.7 3.8.8 1 2.5 1 3.8 0 1.2-1.1 1.5-2.8.7-3.8M117.4 104.1c-.9-1.1-2.8-1.1-4.1 0-1.4 1.1-1.7 3-.8 4.1.9 1.1 2.8 1.1 4.1 0 1.4-1.2 1.7-3 .8-4.1M121.9 82.4c-1-1.2-3-1.2-4.5 0s-1.9 3.2-.9 4.5c1 1.2 3 1.2 4.5 0s1.9-3.2.9-4.5M124.5 82.4c-1.5 1.2-1.8 3.2-.8 4.5 1 1.2 3 1.2 4.5 0s1.9-3.2.9-4.5c-1.1-1.2-3.1-1.2-4.6 0M135.7 82.6c-.9-1.1-2.8-1.1-4.1 0-1.3 1.1-1.7 3-.8 4.1.9 1.1 2.8 1.1 4.1 0 1.3-1.1 1.7-3 .8-4.1"/><path fill="#00A87C" d="M115.3 79.6c1.6-1.3 2-3.5 1-4.8-1.1-1.3-3.2-1.3-4.8 0-1.6 1.3-2 3.5-1 4.8 1.1 1.4 3.2 1.4 4.8 0"/><path fill="#00A87C" d="M109.9 82.3c-1.6 1.3-2 3.5-.9 4.8 1.1 1.3 3.2 1.3 4.8 0 1.6-1.3 2-3.5.9-4.8-1.1-1.4-3.2-1.4-4.8 0"/><path fill="#A7A9AC" d="M114.7 60.4c-1.5 1.2-1.9 3.2-.9 4.5 1 1.2 3 1.3 4.5 0 1.5-1.2 1.9-3.2.9-4.5-1-1.3-3-1.3-4.5 0"/><path fill="#A7A9AC" d="M112.1 72.2c1.1 1.3 3.2 1.3 4.8 0 1.6-1.3 2-3.5 1-4.8-1.1-1.3-3.2-1.3-4.8 0-1.7 1.3-2.1 3.5-1 4.8M110.7 101.5c1.5-1.2 1.9-3.2.9-4.5-1-1.2-3-1.2-4.5 0s-1.8 3.2-.8 4.5c.9 1.3 2.9 1.3 4.4 0M107.4 94.5c1.1 1.3 3.2 1.3 4.8 0 1.6-1.3 2-3.5.9-4.8-1.1-1.3-3.2-1.3-4.8 0-1.5 1.3-1.9 3.5-.9 4.8M127.2 90c-.9-1.1-2.8-1.1-4.1 0-1.4 1.1-1.7 3-.8 4.1.9 1.1 2.8 1.1 4.1 0 1.4-1.1 1.8-3 .8-4.1M128.4 118.1c-.8-.9-2.3-.9-3.4 0s-1.4 2.5-.7 3.4c.8.9 2.3.9 3.4 0s1.4-2.5.7-3.4M134.1 90c-.9-1.1-2.8-1.1-4.1 0-1.4 1.1-1.7 3-.8 4.1.9 1.1 2.8 1.1 4.1 0 1.4-1.1 1.7-3 .8-4.1M134.9 101.2c.8 1 2.5 1 3.8 0 1.2-1.1 1.6-2.7.7-3.8-.8-1-2.5-1-3.8 0-1.3 1.1-1.6 2.8-.7 3.8M140.8 90.2c-.8-1-2.5-1-3.8 0-1.2 1-1.6 2.7-.7 3.8.8 1.1 2.5 1 3.8 0 1.2-1.1 1.5-2.8.7-3.8M132.5 97.4c-.8-1-2.5-1-3.8 0-1.2 1.1-1.6 2.7-.7 3.8.8 1 2.5 1 3.8 0 1.2-1.1 1.5-2.8.7-3.8M113.8 101.4c.9 1.1 2.8 1.1 4.1 0 1.4-1.1 1.7-3 .8-4.1-.9-1.1-2.8-1.1-4.1 0-1.4 1.1-1.7 2.9-.8 4.1M138.4 82.6c-1.4 1.1-1.7 3-.8 4.1.9 1.1 2.8 1.1 4.1 0 1.4-1.1 1.7-3 .8-4.1-.9-1.1-2.8-1.1-4.1 0M143.2 94c.8 1 2.5 1 3.8 0 1.2-1 1.6-2.7.7-3.8-.8-1-2.5-1-3.8 0-1.3 1.1-1.6 2.8-.7 3.8M146 97.6c-.8-.9-2.3-.9-3.4 0-1.1 1-1.4 2.5-.7 3.4.8.9 2.3.9 3.4 0 1.2-1 1.5-2.5.7-3.4M125.6 114.7c.8.9 2.3.9 3.4 0 1.1-1 1.4-2.5.7-3.4-.8-.9-2.3-.9-3.4 0-1.2.9-1.5 2.5-.7 3.4M137.9 104.4c-.8-.9-2.3-.9-3.4 0-1.1 1-1.4 2.5-.7 3.4.8.9 2.3.9 3.4 0s1.4-2.4.7-3.4M125 101.4c1.4-1.1 1.7-3 .8-4.1-.9-1.1-2.8-1.1-4.1 0-1.3 1.1-1.7 3-.8 4.1.9 1.1 2.8 1.1 4.1 0M119.8 108c.8 1 2.5 1 3.8 0 1.2-1 1.6-2.7.7-3.8-.8-1-2.5-1-3.8 0-1.2 1.1-1.5 2.8-.7 3.8M119.5 94.3c1.5-1.2 1.9-3.2.9-4.5-1-1.2-3-1.2-4.5 0s-1.9 3.2-.8 4.5c.9 1.3 2.9 1.2 4.4 0M126.7 108c.8 1 2.5 1 3.8 0 1.2-1 1.6-2.7.7-3.8-.8-1-2.5-1-3.8 0-1.2 1.1-1.6 2.8-.7 3.8M133.7 125.1c-.7-.8-2.1-.8-3.1 0-1 .9-1.3 2.2-.6 3.1.7.8 2.1.8 3.1 0 1.1-.9 1.3-2.2.6-3.1M163.4 146.3c-.4-.5-1.2-.5-1.7 0-.6.5-.7 1.2-.3 1.7.4.5 1.1.5 1.7 0 .5-.4.6-1.2.3-1.7M179.7 132.6c-.4-.5-1.1-.5-1.7 0-.6.5-.7 1.2-.3 1.7.4.5 1.2.5 1.7 0 .6-.4.7-1.2.3-1.7M171.5 139.5c-.4-.5-1.1-.5-1.7 0-.6.5-.7 1.2-.3 1.7.4.5 1.2.5 1.7 0 .6-.5.7-1.2.3-1.7M161.9 153.4c-.3-.4-.9-.4-1.4 0-.5.4-.6 1-.3 1.4.3.4.9.4 1.4 0 .4-.4.6-1.1.3-1.4M160.5 160.2c-.3-.4-.9-.4-1.4 0-.5.4-.6 1-.3 1.4.3.4.9.4 1.4 0 .5-.4.6-1 .3-1.4M170 146.5c-.3-.4-.9-.4-1.4 0-.5.4-.6 1-.3 1.4.3.4.9.4 1.4 0 .5-.4.6-1 .3-1.4M178.2 139.7c-.3-.4-.9-.4-1.4 0-.5.4-.6 1-.3 1.4.3.4.9.4 1.4 0 .5-.5.6-1.1.3-1.4M174.4 125.6c-.5-.6-1.4-.6-2.1 0-.7.6-.9 1.5-.4 2.1.5.6 1.4.6 2.1 0 .6-.6.8-1.5.4-2.1M155.2 153.2c-.4-.5-1.2-.5-1.7 0-.6.5-.7 1.2-.3 1.7.4.5 1.1.5 1.7 0 .5-.5.6-1.2.3-1.7M136.5 111.3c-.8-.9-2.3-.9-3.4 0-1.1 1-1.4 2.5-.7 3.4.8.9 2.3.9 3.4 0 1.2-1 1.5-2.5.7-3.4M166.2 132.5c-.5-.6-1.4-.6-2.1 0-.7.6-.9 1.5-.4 2.1.5.6 1.4.6 2 0 .8-.6.9-1.6.5-2.1M172.8 132.6c-.4-.5-1.1-.5-1.7 0-.6.5-.7 1.2-.3 1.7.4.5 1.2.5 1.7 0 .6-.4.7-1.2.3-1.7M164.7 139.5c-.4-.5-1.1-.5-1.7 0-.6.5-.7 1.2-.3 1.7.4.5 1.1.5 1.7 0 .5-.5.6-1.2.3-1.7M158 139.3c-.5-.6-1.4-.6-2.1 0-.7.6-.9 1.5-.4 2.1.5.6 1.4.6 2.1 0 .7-.6.9-1.5.4-2.1M182.2 153.6c-.2-.2-.7-.2-1 0-.3.3-.4.7-.2.9.2.3.7.3 1 0 .4-.2.4-.7.2-.9M174 160.5c-.2-.3-.7-.3-1 0-.3.3-.4.7-.2.9.2.2.7.2 1 0 .4-.3.5-.7.2-.9M168.7 153.4c-.3-.4-.9-.4-1.4 0-.5.4-.6 1-.3 1.4.3.4.9.4 1.4 0 .5-.4.6-1.1.3-1.4M185.1 139.7c-.3-.4-.9-.4-1.4 0-.5.4-.6 1-.3 1.4.3.4.9.4 1.4 0 .5-.4.6-1.1.3-1.4M176.9 146.5c-.3-.4-.9-.4-1.4 0-.5.4-.6 1-.3 1.4.3.4.9.4 1.4 0 .5-.4.6-1 .3-1.4M183.5 146.7c-.2-.3-.7-.3-1 0-.3.3-.4.7-.2.9.2.3.7.3 1 0 .4-.2.5-.6.2-.9M175.4 153.6c-.2-.3-.7-.3-1 0-.3.3-.4.7-.2.9.2.3.7.2 1 0 .3-.2.4-.6.2-.9M167.2 160.5c-.2-.3-.7-.3-1 0-.3.3-.4.7-.2.9.2.3.7.2 1 0 .3-.3.4-.7.2-.9M156.5 146.3c-.4-.5-1.1-.5-1.7 0-.6.5-.7 1.2-.3 1.7.4.5 1.1.5 1.7 0 .5-.4.7-1.2.3-1.7M148.6 118.4c-.6-.8-1.8-.8-2.7 0-.9.8-1.1 2-.5 2.8.6.8 1.8.7 2.7 0 .9-.8 1.1-2 .5-2.8M150.1 111.4c-.7-.8-2.1-.8-3.1 0-1 .9-1.3 2.2-.6 3.1.7.8 2.1.8 3.1 0s1.3-2.2.6-3.1M158.3 104.6c-.7-.9-2.1-.9-3.1 0-1 .8-1.3 2.2-.6 3.1.7.8 2.1.8 3.1 0 1-.9 1.3-2.3.6-3.1M140.4 125.3c-.6-.8-1.8-.8-2.8 0-.9.8-1.1 2-.5 2.7.6.8 1.8.8 2.8 0 .9-.7 1.1-2 .5-2.7M156.8 111.6c-.6-.8-1.9-.8-2.8 0-.9.8-1.1 2-.5 2.8.6.8 1.9.7 2.7 0 .9-.8 1.2-2 .6-2.8M139.1 132.1c-.6-.8-1.8-.8-2.7 0-.9.8-1.1 2-.5 2.7.6.8 1.8.8 2.7 0 .9-.7 1.1-1.9.5-2.7M147.3 125.3c-.6-.8-1.8-.8-2.7 0-.9.8-1.1 2-.5 2.7.6.8 1.8.8 2.7 0 .8-.7 1.1-2 .5-2.7M152.9 97.6c-.8-.9-2.3-.9-3.4 0-1.1 1-1.4 2.5-.7 3.4.8.9 2.3.9 3.4 0 1.2-1 1.5-2.5.7-3.4M135 118.3c-.7-.9-2.1-.8-3.1 0-1 .9-1.3 2.2-.6 3.1.7.9 2.1.8 3.1 0 1.1-.9 1.3-2.3.6-3.1M144.7 104.4c-.8-.9-2.3-.9-3.4 0s-1.4 2.5-.7 3.4c.8 1 2.3.9 3.4 0 1.2-.9 1.5-2.4.7-3.4M141.9 118.3c-.7-.8-2.1-.8-3.1 0-1 .9-1.3 2.2-.6 3.1.7.8 2.1.8 3.1 0 1-.9 1.3-2.3.6-3.1M143.2 111.4c-.7-.8-2.1-.8-3.1 0s-1.3 2.2-.6 3.1c.7.9 2.1.9 3.1 0 1-.8 1.3-2.2.6-3.1M151.4 104.6c-.7-.8-2.1-.8-3.1 0-1 .9-1.3 2.2-.6 3.1.7.9 2.1.9 3.1 0s1.3-2.3.6-3.1M160.8 125.5c-.5-.7-1.6-.7-2.4 0-.8.7-1 1.7-.5 2.4s1.6.7 2.4 0c.8-.7 1.1-1.8.5-2.4M151.1 139.3c-.5-.6-1.4-.6-2.1 0-.7.6-.9 1.5-.4 2.1.5.6 1.4.6 2.1 0 .7-.6.9-1.5.4-2.1M152.6 132.3c-.5-.7-1.6-.7-2.4 0-.8.7-1 1.7-.5 2.4s1.6.7 2.4 0c.9-.7 1.1-1.7.5-2.4M169 118.6c-.5-.7-1.6-.7-2.4 0-.8.7-1 1.7-.5 2.4s1.6.7 2.4 0c.8-.6 1-1.7.5-2.4M149.8 146.2c-.5-.6-1.4-.6-2.1 0-.7.6-.9 1.5-.4 2.1.5.6 1.4.6 2.1 0 .7-.6.9-1.6.4-2.1M159.3 132.5c-.5-.6-1.4-.6-2.1 0-.7.6-.8 1.5-.4 2.1.5.6 1.4.6 2.1 0 .7-.6.9-1.6.4-2.1M167.5 125.6c-.5-.6-1.4-.6-2.1 0-.7.6-.9 1.5-.4 2.1.5.6 1.4.6 2.1 0 .7-.6.8-1.5.4-2.1M162.1 118.6c-.5-.7-1.6-.7-2.4 0-.8.7-1 1.7-.4 2.4.5.7 1.6.7 2.4 0 .8-.6 1-1.7.4-2.4M144.5 139.1c-.5-.7-1.6-.7-2.4 0-.8.7-1 1.7-.5 2.4s1.6.7 2.4 0c.8-.6 1-1.7.5-2.4M163.6 111.6c-.6-.8-1.9-.8-2.8 0-.9.8-1.1 2-.5 2.8.6.7 1.8.7 2.7 0 1-.8 1.2-2.1.6-2.8M145.8 132.3c-.5-.7-1.6-.7-2.4 0-.8.7-1 1.7-.5 2.4s1.6.7 2.4 0c.8-.7 1-1.7.5-2.4M155.5 118.4c-.6-.8-1.8-.8-2.8 0-.9.8-1.1 2-.5 2.7.6.8 1.8.7 2.7 0 .9-.7 1.2-1.9.6-2.7M153.9 125.4c-.5-.7-1.6-.7-2.4 0-.8.7-1 1.7-.5 2.4s1.6.7 2.4 0c.9-.6 1.1-1.7.5-2.4"/><path fill="#00A87C" d="M242.6 109.3c-10 0-15.8-8-13.6-21.3 2.3-13.6 11-21.6 22.3-21.6 3.8 0 8.6.9 15.1 2.8l-3.1 7.3c-4.2-.9-6.3-1.3-9-1.3-6 0-10.2 4.1-11.6 12.4-1.3 8.1 1.2 12.1 6.7 12.1 2.5 0 6.1-.6 10.9-1.7l1.1 7c-8.2 2.9-14.4 4.3-18.8 4.3"/><path fill="#00A87C" d="M281.4 109.2c-13.6 0-20.2-7.7-18-21.3 2.2-13.4 11.5-21.5 25-21.5 13.7 0 20.2 7.8 18 21.4-2.3 13.5-11.4 21.4-25 21.4m5.6-34.4c-5.3 0-8.5 4-10 12.7-1.6 9.6.2 13.3 5.8 13.3 5.3 0 8.3-3.8 9.8-12.9 1.6-9.3 0-13.1-5.6-13.1M321.7 109.3c-5.4 0-9.3-1.9-10.5-5.2-.9-2.4-.9-5.2.3-12.3l2.7-16.4H307l1.1-6.8 7.4-1.2 1.9-11.1 13.1-1.4-1.9 12.5H340l-1.3 8.1h-11.4l-2.5 15.1c-1.1 6.5-1.1 7-.5 8.1.5 1.3 1.9 1.9 4.4 1.9 1.6 0 3.2-.3 6.6-.9l-1.3 7.8c-5.5 1.4-8.7 1.8-12.3 1.8M212.7 59.7c4.4 0 12.7 1.5 14.2 1.7l3.4-8.6c-8.6-2-13.6-2.8-18.7-2.8-13.4 0-22.6 6.6-24.4 17.4-2.1 12.7 6 15.1 17.3 18 6.8 1.8 8.4 3.4 7.8 6.9-1 5.8-8.7 7.3-13.8 7.3-4.3 0-9.5-.9-15-2l-.1.2-1.6 9c6.8 1.5 11.7 2.4 17.1 2.4 15.5 0 25.5-6.9 27.5-19 2-12.2-6.2-14.8-17.8-17.1-6.1-1.2-8.3-2.7-7.7-6.5.9-5.4 7.2-6.9 11.8-6.9M222.9 135.7c-1.6 0-3.1-.3-5.3-.8l1-2.6c1.5.3 3 .6 4.2.6 1.4 0 3.6-.5 3.9-2.2.2-1-.3-1.5-2.2-2-3.2-.9-5.4-1.6-4.8-5.3.5-3.2 3.1-5.1 6.8-5.1 1.4 0 2.8.2 5.2.8l-1 2.5c-.4-.1-2.7-.5-4-.5-1.3 0-3.1.4-3.3 2-.2 1.1.4 1.5 2.2 1.9 3.2.7 5.5 1.4 5 5s-3.3 5.7-7.7 5.7M237.5 135.7c-3.5 0-5.4-2.6-4.7-6.8.7-4.4 3.5-7 7.3-7 1.2 0 2 .1 3.9.5l-.9 2.4c-.4-.1-1.8-.3-2.7-.3-2.4 0-3.5 1.7-3.9 4.2-.5 2.9.3 4.2 2.1 4.2.8 0 1.4-.1 3.4-.6l.3 2.4c-2.1.7-3.4 1-4.8 1M249.7 135.7c-4.1 0-6-2.5-5.3-6.9.7-4.4 3.4-6.9 7.5-6.9s6 2.5 5.3 6.9c-.7 4.4-3.4 6.9-7.5 6.9m1.8-11.3c-1.7 0-2.9 1.3-3.3 4.3-.5 2.9.1 4.4 2 4.4 1.7 0 2.8-1.2 3.3-4.4.5-3-.3-4.3-2-4.3M266.2 124.6l-1.7 10.8h-3.6l1.7-10.8h-4.2l.4-2.5h11.9l-.4 2.5zM270.6 135.4l2.1-13.3h3.6l-1.7 10.8h5.9l-.4 2.5zM290.9 135.4l-.6-2.9h-5l-1.4 2.9h-3.4l7.2-13.3h3.9l3.2 13.3h-3.9zm-1.9-10.3l-2.5 5.2h3.5l-1-5.2zM303.9 135.4l-3-9.5-1.3 9.5h-3l2.1-13.3h4.4l3.1 9.5 1.3-9.5h3l-2.1 13.3zM322.1 133.9c-1.8 1.4-3.7 1.5-6.1 1.5h-4.1l2.1-13.3h4.8c2.5 0 3.9.3 4.9 1.3 1.1 1.1 1.5 3 1.1 5.2-.3 2.3-1.3 4.1-2.7 5.3m-1.5-8.5c-.5-.6-1.3-.9-2.8-.9h-.6l-1.3 8.4h.5c1.7 0 2.6-.3 3.3-1 .7-.7 1.1-1.8 1.3-3.2.3-1.6.2-2.7-.4-3.3M329.1 124.7l-2.4-1.1 3.1-5.1h4zM335.1 135.6c-1.4 0-2.6-.2-4.6-.7l.9-2.4c1.5.3 2.7.5 3.7.5 1.2 0 2.7-.3 2.9-1.5.1-.8-.4-1-1.4-1.3-2-.6-5-.8-4.5-4.3.4-2.6 2.7-4.1 5.9-4.1 1.2 0 2.4.2 4.6.7l-.9 2.3c-.4-.1-2.5-.4-3.5-.4-1.2 0-2.3.3-2.4 1.4-.1.7.3 1 1.6 1.3 2.7.5 4.8 1.2 4.3 4-.5 2.9-2.9 4.5-6.6 4.5M359.8 135.4l-.8-4.1c-.3-1.5-.6-2.4-1.6-2.6-.4-.1-.9-.1-1.7-.1h-.5l-1.1 6.8h-3.8l2.7-16.9h5.8c2.3 0 3.1.1 3.9.6 1.3.7 1.8 2 1.5 3.9-.4 2.5-1.8 3.9-4.4 4.3 1.7.2 2.5 1.1 3.1 4l.8 4.1h-3.9m0-13.9c-.5-.3-1.1-.4-2.3-.4h-1l-.8 5h.7c2.4 0 3.7-.3 4.1-2.5 0-1-.2-1.7-.7-2.1M374.6 135.4l-.6-2.9h-5l-1.4 2.9h-3.4l7.2-13.3h4l3.2 13.3h-4zm-1.9-10.3l-2.5 5.2h3.5l-1-5.2zM380.3 135.4l2.1-13.3h3.7l-2.1 13.3zM387.4 135.4l2.2-13.3h3.6l-1.7 10.8h5.9l-.4 2.5zM411.8 135.4h-4l-.5-10.3-3.6 10.3h-4l-1-13.3h3.5l.3 10.2 3.7-10.2h3.9l.3 10.2 3.7-10.2h2.9zM424.9 135.4l-.6-2.9h-5l-1.4 2.9h-3.4l7.2-13.3h3.9l3.2 13.3h-3.9zm-1.9-10.3l-2.5 5.2h3.5l-1-5.2zM436.6 129.6l-.9 5.8h-3.6l.9-5.8-3.7-7.5h4.3l1.9 4.9 3.7-4.9h3.6z"/><g fill="#A7A9AC"><path d="M395.1 108.4l.7-4c-5.9 3.1-10.5 4.8-14 4.8-6.8 0-10.6-4.5-9.2-12.7.7-4.1 2-7.1 4.6-9.1 4.5-3.6 12.4-4.1 21.5-4.1l.2-1c.9-5.2.1-6.7-6.3-6.7-3.2 0-6.6.3-12.4 1.4l1.3-7.6c5.1-1.3 11.1-2.9 18.9-2.9 6 0 9.3 1.5 10.8 4.7 1.2 2.8 1.1 5.7-.2 13.6l-4 23.8h-11.9m2.6-19.7c-8.3.3-11.6 2-12.4 6.3-.6 3.9 1.2 5.4 4.2 5.4 2.5 0 6.4-1.1 6.4-1.1l1.8-10.6zM431.1 108.4l10.2-58.7 13.1-2.4-10.2 61.1zM372.9 76.8H356l2.5-15.2h5.7l17.1-.2 1.5-8.4h-36.7l-9.1 55.4h13.7l3.9-23.2h16.8zM412.7 108.4l6.8-41.2h13.2l-6.9 41.2zM429.3 64.8c-4 0-6.6-3-6-6.8.6-3.8 4.3-6.9 8.3-6.9 4 0 6.6 3.1 6 6.9-.6 3.7-4.3 6.8-8.3 6.8"/></g></svg>
