<svg xmlns="http://www.w3.org/2000/svg" width="32.6" height="31.8"><path d="M-136.3 168.6h531v276h-531z"/><path fill-rule="evenodd" clip-rule="evenodd" fill="#191717" d="M16.3 0C7.3 0 0 7.3 0 16.3c0 7.2 4.7 13.3 11.1 15.5.8.1 1.1-.4 1.1-.8v-2.8c-4.5 1-5.5-2.2-5.5-2.2-.7-1.9-1.8-2.4-1.8-2.4-1.5-1 .1-1 .1-1 1.6.1 2.5 1.7 2.5 1.7 1.5 2.5 3.8 1.8 4.7 1.4.1-1.1.6-1.8 1-2.2-3.6-.4-7.4-1.8-7.4-8.1 0-1.8.6-3.2 1.7-4.4-.1-.3-.7-2 .2-4.2 0 0 1.4-.4 4.5 1.7 1.3-.4 2.7-.5 4.1-.5 1.4 0 2.8.2 4.1.5 3.1-2.1 4.5-1.7 4.5-1.7.9 2.2.3 3.9.2 4.3 1 1.1 1.7 2.6 1.7 4.4 0 6.3-3.8 7.6-7.4 8 .6.5 1.1 1.5 1.1 3V31c0 .4.3.9 1.1.8 6.5-2.2 11.1-8.3 11.1-15.5C32.6 7.3 25.3 0 16.3 0z"/><g fill="#191717"><path fill-rule="evenodd" clip-rule="evenodd" d="M214.3-49c-33.3 0-60.4 27-60.4 60.4 0 26.7 17.3 49.3 41.3 57.3 3 .6 4.1-1.3 4.1-2.9 0-1.4-.1-6.2-.1-11.2-16.8 3.7-20.3-7.1-20.3-7.1-2.7-7-6.7-8.8-6.7-8.8-5.5-3.7.4-3.7.4-3.7 6.1.4 9.3 6.2 9.3 6.2 5.4 9.2 14.1 6.6 17.6 5 .5-3.9 2.1-6.6 3.8-8.1-13.4-1.5-27.5-6.7-27.5-29.8 0-6.6 2.4-12 6.2-16.2-.6-1.5-2.7-7.7.6-16 0 0 5.1-1.6 16.6 6.2 4.8-1.3 10-2 15.1-2s10.3.7 15.1 2C240.9-25.6 246-24 246-24c3.3 8.3 1.2 14.5.6 16 3.9 4.2 6.2 9.6 6.2 16.2 0 23.2-14.1 28.3-27.6 29.8 2.2 1.9 4.1 5.5 4.1 11.2 0 8.1-.1 14.6-.1 16.6 0 1.6 1.1 3.5 4.1 2.9 24-8 41.3-30.6 41.3-57.3.1-33.4-27-60.4-60.3-60.4z"/><path d="M176.8 37.7c-.1.3-.6.4-1 .2s-.7-.6-.5-.9c.1-.3.6-.4 1-.2s.6.6.5.9zm-.8-.6M179.2 40.4c-.3.3-.9.1-1.2-.3-.4-.4-.5-1-.2-1.3.3-.3.8-.1 1.2.3.4.5.5 1.1.2 1.3zm-.6-.6M181.6 43.9c-.4.3-1 0-1.3-.5-.4-.5-.4-1.2 0-1.4.4-.3 1 0 1.3.5.4.5.4 1.1 0 1.4zm0 0M184.9 47.3c-.3.4-1 .3-1.6-.2-.5-.5-.7-1.2-.3-1.5.3-.4 1-.3 1.6.2.5.4.6 1.1.3 1.5zm0 0M189.4 49.2c-.1.5-.8.7-1.5.5-.7-.2-1.1-.8-1-1.2.1-.5.8-.7 1.5-.5.7.2 1.1.7 1 1.2zm0 0M194.3 49.6c0 .5-.6.9-1.3.9-.7 0-1.3-.4-1.3-.9s.6-.9 1.3-.9c.7 0 1.3.4 1.3.9zm0 0M198.9 48.8c.1.5-.4 1-1.1 1.1-.7.1-1.3-.2-1.4-.7-.1-.5.4-1 1.1-1.1.7-.1 1.3.2 1.4.7zm0 0"/></g><g fill="none" stroke="#1981BC" stroke-linecap="round" stroke-miterlimit="10"><path d="M88.6-54.9v.5"/><path stroke-dasharray="0.9999,1.9999" d="M88.6-52.4v134"/><path d="M88.6 82.6v.5"/></g><g fill="#0072BC"><path d="M-3 97.1c-.4-.3-.9-.4-1.5-.4-.2 0-.5 0-.7.1-.2 0-.4.1-.6.2-.2.1-.3.3-.4.5-.1.2-.2.4-.2.7 0 .3.1.5.2.6.2.2.4.3.6.4l.9.3c.3.1.7.1 1 .2.3.1.7.2 1 .3.3.1.6.3.9.4.3.2.5.4.6.7.2.3.2.6.2 1.1 0 .5-.1.8-.3 1.2-.2.3-.5.6-.8.8-.3.2-.7.4-1.1.4-.4.1-.8.1-1.2.1-.5 0-.9-.1-1.4-.2-.4-.1-.8-.3-1.1-.5-.3-.2-.6-.6-.8-.9-.2-.4-.3-.8-.3-1.3h1.1c0 .4.1.7.2.9.1.3.3.5.6.6.2.2.5.3.8.4.3.1.6.1.9.1.3 0 .5 0 .8-.1.3 0 .5-.1.7-.2.2-.1.4-.3.5-.5.1-.2.2-.5.2-.8 0-.3-.1-.5-.2-.7-.2-.2-.4-.3-.6-.5l-.9-.3c-.3-.1-.7-.1-1-.2-.3-.1-.7-.2-1-.3-.3-.1-.6-.2-.9-.4-.3-.2-.5-.4-.6-.6-.2-.3-.2-.6-.2-1s.1-.8.3-1.1c.2-.3.4-.6.7-.8.3-.2.6-.4 1-.5.4-.1.8-.2 1.1-.2.4 0 .8.1 1.2.2s.7.3 1 .5c.3.2.5.5.7.8.2.3.3.7.3 1.2h-1.1c0-.5-.3-1-.6-1.2zM1.2 98.3v.9c.5-.7 1.1-1.1 2-1.1.4 0 .7.1 1 .2.3.2.5.4.7.8.2-.3.5-.6.8-.8.3-.2.7-.3 1.1-.3.3 0 .6 0 .8.1.3.1.5.2.6.3.2.1.3.3.4.6.3.3.4.6.4.9v4.5H8v-4.1-.5c0-.2-.1-.3-.2-.4-.1-.1-.2-.2-.4-.3-.2 0-.4-.1-.6-.1-.5 0-.9.1-1.2.4s-.4.7-.4 1.2v3.9h-1v-4.1c0-.2 0-.4-.1-.6 0-.2-.1-.3-.2-.4-.1-.1-.2-.2-.4-.3-.1-.1-.3-.1-.6-.1s-.5.1-.8.2c-.2.1-.4.3-.5.4-.1.2-.2.3-.3.5-.1.2-.1.3-.1.5v3.9h-1v-6.2h1zM15.3 104.6c-.3 0-.5-.1-.6-.2-.2-.1-.2-.4-.2-.7-.3.3-.6.6-1 .7-.4.1-.8.2-1.2.2-.3 0-.5 0-.8-.1-.2-.1-.5-.2-.7-.3-.2-.1-.3-.3-.4-.5-.1-.2-.2-.5-.2-.8 0-.4.1-.6.2-.9.1-.2.3-.4.5-.5.2-.1.4-.2.7-.3.3-.1.5-.1.8-.2.3-.1.5-.1.8-.1.3 0 .5-.1.7-.1.2-.1.3-.1.5-.2.1-.1.2-.2.2-.4s0-.4-.1-.5l-.3-.3c-.1-.1-.3-.1-.4-.1h-.5c-.4 0-.8.1-1.1.2-.3.2-.4.5-.5.9h-1c0-.4.1-.7.2-1 .1-.3.3-.5.6-.6.2-.2.5-.3.8-.4.3-.1.6-.1 1-.1.3 0 .6 0 .8.1.3 0 .5.1.8.2.2.1.4.3.5.5.1.2.2.5.2.9v3.7c0 .1.1.2.3.2.1 0 .2 0 .3-.1v.8c-.4-.1-.6 0-.9 0zm-1.5-3.1c-.2 0-.4.1-.7.1-.2 0-.5.1-.7.1-.2 0-.4.1-.6.2-.2.1-.3.2-.5.3-.1.1-.2.3-.2.6 0 .2 0 .3.1.4l.3.3c.1.1.2.1.4.2h.4c.3 0 .6 0 .9-.1l.6-.3c.2-.1.3-.3.3-.5.1-.2.1-.3.1-.5v-1c0 .1-.1.1-.4.2zM18 95.9v8.6h-1v-8.6h1zM20.7 95.9v8.6h-1v-8.6h1zM-34.5 113.6v-.9h1v-.9c0-.5.1-.9.4-1.1.3-.3.7-.4 1.3-.4h.3c.1 0 .2 0 .3.1v.9c-.1 0-.2-.1-.3-.1h-.3c-.2 0-.4 0-.6.1-.1.1-.2.3-.2.6v.9h1.2v.9h-1.2v5.3h-1v-5.3h-.9zM-30.4 114.5c.1-.4.3-.7.6-1 .3-.3.6-.5.9-.7.4-.2.8-.3 1.3-.3s.9.1 1.3.3c.4.2.7.4.9.7.3.3.4.6.6 1 .1.4.2.8.2 1.3s-.1.9-.2 1.3-.3.7-.6 1c-.3.3-.6.5-.9.7-.4.2-.8.2-1.3.2s-.9-.1-1.3-.2c-.4-.2-.7-.4-.9-.7-.3-.3-.4-.6-.6-1-.1-.4-.2-.8-.2-1.3s0-.9.2-1.3zm1 2.3c.1.3.2.5.4.7.2.2.4.3.6.4.2.1.5.2.8.2.3 0 .5-.1.8-.2.2-.1.4-.3.6-.4.2-.2.3-.4.4-.7.1-.3.1-.6.1-1s0-.7-.1-1c-.1-.3-.2-.5-.4-.7-.2-.2-.4-.4-.6-.5-.2-.1-.5-.2-.8-.2-.3 0-.5.1-.8.2-.2.1-.4.3-.6.5-.2.2-.3.4-.4.7-.1.3-.1.6-.1 1 0 .3 0 .7.1 1zM-22.5 112.7v1.3c.2-.5.6-.9.9-1.1.4-.2.8-.4 1.4-.3v1.1c-.4 0-.8.1-1 .2-.3.1-.5.3-.7.5-.2.2-.3.5-.4.8-.1.3-.1.7-.1 1.1v2.8h-1v-6.2h.9zM-13.6 118.9v-6.1h-2.2v-.8c.3 0 .6 0 .8-.1.3 0 .5-.1.7-.2.2-.1.4-.3.6-.5.2-.2.3-.5.3-.8h.8v8.5h-1zM-5.6 111.6c-.2-.2-.6-.3-1-.3s-.8.1-1 .3c-.3.2-.5.5-.6.8-.1.3-.2.7-.3 1.1-.1.4-.1.7-.1 1.1.2-.4.5-.7.9-.9.4-.2.8-.3 1.2-.3.4 0 .8.1 1.1.2.3.1.6.3.8.6.2.2.4.5.5.9.1.3.2.7.2 1.1 0 .3 0 .6-.1 1-.1.3-.3.6-.5.9-.2.3-.5.5-.9.7-.4.2-.8.3-1.4.3-.6 0-1.1-.1-1.5-.4-.4-.3-.7-.6-.9-1-.2-.4-.3-.8-.4-1.3-.1-.5-.1-.9-.1-1.4 0-.6 0-1.1.1-1.7.1-.5.3-1 .5-1.5.2-.4.6-.8 1-1 .4-.3.9-.4 1.5-.4.7 0 1.3.2 1.7.6s.7.9.7 1.6h-1c0-.5-.2-.8-.4-1zm-1.9 2.8c-.2.1-.4.2-.6.4-.2.2-.3.4-.3.6-.1.2-.1.5-.1.8 0 .3 0 .5.1.7l.3.6c.1.2.3.3.6.4.2.1.5.2.8.2.3 0 .5 0 .7-.2.2-.1.4-.2.5-.4.1-.2.3-.4.3-.6.1-.2.1-.5.1-.7 0-.3 0-.5-.1-.8l-.3-.6c-.1-.2-.3-.3-.5-.4-.2-.1-.5-.2-.8-.2-.2.1-.5.1-.7.2zM-1.7 112.7v.8c.2-.3.4-.6.8-.8.4-.2.8-.2 1.2-.2.5 0 .9.1 1.3.3.4.2.7.4.9.7.2.3.4.6.5 1 .1.4.2.8.2 1.2 0 .4-.1.9-.2 1.2-.1.4-.3.7-.5 1-.2.3-.5.5-.9.7-.4.2-.8.3-1.2.3h-.5c-.2 0-.4-.1-.6-.2-.2-.1-.4-.2-.5-.3-.2-.1-.3-.3-.4-.5v3.2h-1v-8.6h.9zm3.7 2.2c-.1-.3-.2-.5-.3-.7-.2-.2-.4-.4-.6-.5-.2-.1-.5-.2-.9-.2-.3 0-.6.1-.9.2-.2.1-.4.3-.6.5-.2.2-.3.5-.3.8-.1.3-.1.6-.1.9 0 .3 0 .6.1.9.1.3.2.5.3.8.2.2.4.4.6.5.2.1.5.2.9.2s.6-.1.9-.2c.2-.1.4-.3.6-.5.1-.2.2-.5.3-.8.1-.3.1-.6.1-.9 0-.5 0-.8-.1-1zM3.9 112.7h1.3l1.5 2.2 1.5-2.2h1.2l-2.1 2.9 2.4 3.3H8.4l-1.7-2.6-1.7 2.6H3.7l2.3-3.3-2.1-2.9zM13.9 115v1h-3.5v-1h3.5zM17.8 118.9v-6.1h-2.2v-.8c.3 0 .6 0 .8-.1.3 0 .5-.1.7-.2.2-.1.4-.3.6-.5.2-.2.3-.5.3-.8h.8v8.5h-1zM21.8 112.2c.1-.4.3-.7.5-1 .2-.3.5-.5.9-.6.4-.2.8-.2 1.2-.2.4 0 .7.1 1 .2.3.1.6.3.8.5.2.2.4.5.6.8.1.3.2.7.2 1.1 0 .4-.1.7-.2 1-.1.3-.3.5-.5.8-.2.2-.4.4-.7.6-.2.2-.5.4-.8.5-.3.2-.5.3-.8.5-.3.2-.5.3-.7.5l-.6.6c-.2.2-.3.4-.3.7H27v.9h-5.6c0-.5.1-.9.3-1.3.1-.4.3-.7.5-.9.2-.3.5-.5.7-.7l.9-.6c.4-.2.7-.4.9-.6.3-.2.5-.4.7-.6.2-.2.3-.4.4-.6s.1-.5.1-.8c0-.2 0-.4-.1-.6-.1-.2-.2-.3-.4-.5-.1-.1-.3-.2-.5-.3-.2-.1-.4-.1-.6-.1-.3 0-.6.1-.8.2-.2.1-.4.3-.5.5-.1.2-.2.4-.3.7-.1.3-.1.5-.1.8h-1c.1-.8.1-1.2.2-1.5zM28.4 113.7c0-.3.1-.7.1-1l.3-.9c.1-.3.3-.5.5-.8.2-.2.5-.4.8-.5.3-.1.7-.2 1.1-.2.4 0 .8.1 1.1.2.3.1.6.3.8.5.2.2.4.5.5.8l.3.9c.1.3.1.6.1 1v2c0 .3-.1.7-.1 1l-.3.9c-.1.3-.3.5-.5.8-.2.2-.5.4-.8.5-.3.1-.7.2-1.1.2-.4 0-.8-.1-1.1-.2-.3-.1-.6-.3-.8-.5-.2-.2-.4-.5-.5-.8l-.3-.9c-.1-.3-.1-.6-.1-1v-1-1zm1.1 2.1c0 .4.1.8.2 1.1.1.3.3.6.5.9.2.2.6.4 1 .4s.8-.1 1-.4c.2-.2.4-.5.5-.9.1-.3.2-.7.2-1.1v-1.1-.7c0-.3 0-.5-.1-.8 0-.3-.1-.5-.2-.7-.1-.2-.2-.5-.3-.6-.1-.2-.3-.3-.5-.4-.2-.1-.4-.2-.7-.2s-.5.1-.7.2c-.2.1-.4.3-.5.4l-.3.6c-.1.2-.1.5-.2.7 0 .3-.1.5-.1.8v.7c.1.3.1.7.2 1.1zM36.3 112.7v.8c.2-.3.4-.6.8-.8.4-.2.8-.2 1.2-.2.5 0 .9.1 1.3.3.4.2.7.4.9.7.2.3.4.6.5 1 .1.4.2.8.2 1.2 0 .4-.1.9-.2 1.2-.1.4-.3.7-.5 1-.2.3-.5.5-.9.7-.4.2-.8.3-1.2.3h-.5c-.2 0-.4-.1-.6-.2-.2-.1-.4-.2-.5-.3-.2-.1-.3-.3-.4-.5v3.2h-1v-8.6h.9zm3.7 2.2c-.1-.3-.2-.5-.3-.7-.2-.2-.4-.4-.6-.5-.2-.1-.5-.2-.9-.2-.3 0-.6.1-.9.2-.2.1-.4.3-.6.5-.2.2-.3.5-.3.8-.1.3-.1.6-.1.9 0 .3 0 .6.1.9.1.3.2.5.3.8.2.2.4.4.6.5.2.1.5.2.9.2s.6-.1.9-.2c.2-.1.4-.3.6-.5.1-.2.2-.5.3-.8.1-.3.1-.6.1-.9 0-.5 0-.8-.1-1zM41.9 112.7h1.3l1.5 2.2 1.5-2.2h1.2l-2.1 2.9 2.4 3.3h-1.3l-1.7-2.6-1.7 2.6h-1.2l2.3-3.3-2.2-2.9z"/></g><g fill="#0072BC"><path d="M199.3 95.9v7.6h4.5v1h-5.7v-8.6h1.2zM209.4 104.6c-.3 0-.5-.1-.6-.2-.2-.1-.2-.4-.2-.7-.3.3-.6.6-1 .7-.4.1-.8.2-1.2.2-.3 0-.5 0-.8-.1-.2-.1-.5-.2-.7-.3-.2-.1-.3-.3-.4-.5-.1-.2-.2-.5-.2-.8 0-.4.1-.6.2-.9.1-.2.3-.4.5-.5.2-.1.4-.2.7-.3.3-.1.5-.1.8-.2.3-.1.5-.1.8-.1.3 0 .5-.1.7-.1.2-.1.3-.1.5-.2.1-.1.2-.2.2-.4s0-.4-.1-.5l-.3-.3c-.1-.1-.3-.1-.4-.1h-.5c-.4 0-.8.1-1.1.2-.3.2-.4.5-.5.9h-1c0-.4.1-.7.2-1 .1-.3.3-.5.6-.6.2-.2.5-.3.8-.4.3-.1.6-.1 1-.1.3 0 .6 0 .8.1.3 0 .5.1.8.2.2.1.4.3.5.5.1.2.2.5.2.9v3.7c0 .1.1.2.3.2.1 0 .2 0 .3-.1v.8c-.3-.1-.5 0-.9 0zm-1.4-3.1c-.2 0-.4.1-.7.1-.2 0-.5.1-.7.1-.2 0-.4.1-.6.2-.2.1-.3.2-.4.3-.1.1-.2.4-.2.6 0 .2 0 .3.1.4l.3.3c.1.1.2.1.4.2h.4c.3 0 .6 0 .9-.1l.6-.3c.2-.1.3-.3.3-.5.1-.2.1-.3.1-.5v-1c-.1.1-.3.1-.5.2zM212 98.3v1.3c.2-.5.6-.9.9-1.1.4-.2.8-.4 1.4-.3v1.1c-.4 0-.8.1-1 .2-.3.1-.5.3-.7.5-.2.2-.3.5-.4.8-.1.3-.1.7-.1 1.1v2.8h-1v-6.2h.9zM219.4 106.2c-.5.5-1.2.8-2.2.8-.3 0-.6 0-.9-.1-.3-.1-.6-.2-.8-.3-.2-.1-.4-.3-.6-.6-.2-.2-.2-.5-.3-.9h1c0 .2.1.3.2.5.1.1.2.2.4.3.2.1.3.1.5.2.2 0 .4.1.5.1.3 0 .6-.1.9-.2.2-.1.4-.3.6-.5.2-.2.3-.4.3-.7.1-.3.1-.6.1-.9v-.4c-.2.4-.4.7-.8.8-.4.2-.7.3-1.1.3-.5 0-.9-.1-1.2-.3-.3-.2-.6-.4-.9-.7-.2-.3-.4-.6-.5-1-.1-.4-.2-.8-.2-1.2 0-.4 0-.7.1-1.1.1-.4.3-.7.5-1.1.2-.3.5-.6.9-.8.4-.2.8-.3 1.4-.3.4 0 .8.1 1.1.3.3.2.6.4.8.8v-.9h1v5.7c-.1 1-.3 1.7-.8 2.2zm-1.3-2.8c.2-.1.4-.3.6-.6.1-.2.2-.5.3-.8.1-.3.1-.6.1-.9 0-.3 0-.5-.1-.8-.1-.3-.2-.5-.3-.7-.1-.2-.3-.4-.5-.5-.2-.1-.5-.2-.8-.2-.3 0-.6.1-.8.2-.2.1-.4.3-.6.5-.1.2-.3.4-.3.7-.1.3-.1.6-.1.9 0 .3 0 .6.1.8.1.3.2.5.3.8.1.2.3.4.5.6.2.1.5.2.8.2.3 0 .6 0 .8-.2zM226.1 104.1c-.5.4-1 .5-1.8.5-.5 0-.9-.1-1.3-.2-.4-.2-.7-.4-.9-.7-.2-.3-.4-.6-.6-1-.1-.4-.2-.8-.2-1.3s.1-.9.2-1.3.3-.7.6-1c.3-.3.6-.5.9-.7.4-.2.7-.2 1.2-.2.6 0 1 .1 1.4.3.4.2.7.5.9.9.2.4.4.7.5 1.2.1.4.1.8.1 1.2h-4.6c0 .3 0 .5.1.8.1.2.2.5.3.6.2.2.4.3.6.5.2.1.5.2.9.2s.8-.1 1.1-.3c.3-.2.5-.5.5-.9h1c-.2.5-.5 1-.9 1.4zm-.3-4c-.1-.2-.2-.4-.4-.6-.2-.2-.3-.3-.6-.4-.2-.1-.4-.1-.7-.1-.3 0-.5 0-.7.1-.2.1-.4.2-.5.4-.2.2-.3.3-.4.6-.1.2-.1.4-.2.7h3.6c.1-.3 0-.5-.1-.7zM229 98.3v1.3c.2-.5.6-.9.9-1.1.4-.2.8-.4 1.4-.3v1.1c-.4 0-.8.1-1 .2-.3.1-.5.3-.7.5-.2.2-.3.5-.4.8-.1.3-.1.7-.1 1.1v2.8h-1v-6.2h.9zM181.9 113.6v-.9h1v-.9c0-.5.1-.9.4-1.1.3-.3.7-.4 1.3-.4h.3c.1 0 .2 0 .3.1v.9c-.1 0-.2-.1-.3-.1h-.3c-.2 0-.4 0-.6.1-.1.1-.2.3-.2.6v.9h1.2v.9h-1v5.3h-1v-5.3h-1.1zM186 114.5c.1-.4.3-.7.6-1 .3-.3.6-.5.9-.7.4-.2.8-.3 1.3-.3s.9.1 1.3.3c.4.2.7.4.9.7.3.3.4.6.6 1 .1.4.2.8.2 1.3s-.1.9-.2 1.3-.3.7-.6 1c-.3.3-.6.5-.9.7-.4.2-.8.2-1.3.2s-.9-.1-1.3-.2c-.4-.2-.7-.4-.9-.7-.3-.3-.4-.6-.6-1-.1-.4-.2-.8-.2-1.3s0-.9.2-1.3zm1 2.3c.1.3.2.5.4.7.2.2.4.3.6.5.2.1.5.2.8.2.3 0 .5-.1.8-.2.2-.1.4-.3.6-.5.2-.2.3-.4.4-.7.1-.3.1-.6.1-1s0-.7-.1-1c-.1-.3-.2-.5-.4-.7-.2-.2-.4-.4-.6-.5-.2-.1-.5-.2-.8-.2-.3 0-.5.1-.8.2-.2.1-.4.3-.6.5-.2.2-.3.4-.4.7-.1.3-.2.6-.2 1 .1.3.1.7.2 1zM193.9 112.7v1.3c.2-.5.6-.9.9-1.1.4-.2.8-.4 1.4-.3v1.1c-.4 0-.8.1-1 .2-.3.1-.5.3-.7.5-.2.2-.3.5-.4.8-.1.3-.1.7-.1 1.1v2.8h-1v-6.2h.9zM202.8 118.9v-6.1h-2.2v-.8c.3 0 .6 0 .8-.1.3 0 .5-.1.7-.2.2-.1.4-.3.6-.5.2-.2.3-.5.3-.8h.8v8.5h-1zM206.9 112.2c.1-.4.3-.7.5-1 .2-.3.5-.5.9-.6.4-.2.8-.2 1.2-.2.4 0 .7.1 1 .2.3.1.6.3.8.5.2.2.4.5.6.8.1.3.2.7.2 1.1 0 .4-.1.7-.2 1-.1.3-.3.5-.5.8-.2.2-.4.4-.7.6-.2.2-.5.4-.8.5-.3.2-.5.3-.8.5-.3.2-.5.3-.7.5l-.6.6c-.2.2-.3.4-.3.7h4.4v.9h-5.6c0-.5.1-.9.3-1.3.1-.4.3-.7.5-.9.2-.3.5-.5.7-.7l.9-.6c.4-.2.7-.4.9-.6.3-.2.5-.4.7-.6.2-.2.3-.4.4-.6.1-.2.1-.5.1-.8 0-.2 0-.4-.1-.6-.1-.2-.2-.3-.4-.5-.1-.1-.3-.2-.5-.3-.2-.1-.4-.1-.6-.1-.3 0-.6.1-.8.2-.2.1-.4.3-.5.5-.1.2-.2.4-.3.7-.1.3-.1.5-.1.8h-1c.2-.8.3-1.2.4-1.5zM213.4 113.7c0-.3.1-.7.1-1l.3-.9c.1-.3.3-.5.5-.8.2-.2.5-.4.8-.5.3-.1.7-.2 1.1-.2.4 0 .8.1 1.1.2.3.1.6.3.8.5.2.2.4.5.5.8l.3.9c.1.3.1.6.1 1v2c0 .3-.1.7-.1 1l-.3.9c-.1.3-.3.5-.5.8-.2.2-.5.4-.8.5-.3.1-.7.2-1.1.2-.4 0-.8-.1-1.1-.2-.3-.1-.6-.3-.8-.5-.2-.2-.4-.5-.5-.8l-.3-.9c-.1-.3-.1-.6-.1-1v-1-1zm1.1 2c0 .4.1.8.2 1.1.1.3.3.6.5.9.2.2.6.4 1 .4s.8-.1 1-.4c.2-.2.4-.5.5-.9.1-.3.2-.7.2-1.1v-1.1-.7c0-.3 0-.5-.1-.8 0-.3-.1-.5-.2-.7l-.3-.6c-.1-.2-.3-.3-.5-.4-.2-.1-.4-.2-.7-.2-.3 0-.5.1-.7.2-.2.1-.4.3-.5.4l-.3.6c-.1.2-.1.5-.2.7 0 .3-.1.5-.1.8v.7c.2.4.2.8.2 1.1zM221.4 112.7v.8c.2-.3.4-.6.8-.8.4-.2.8-.2 1.2-.2.5 0 .9.1 1.3.3.4.2.7.4.9.7.2.3.4.6.5 1 .1.4.2.8.2 1.2 0 .4-.1.9-.2 1.2-.1.4-.3.7-.5 1-.2.3-.5.5-.9.7-.4.2-.8.3-1.2.3h-.5c-.2 0-.4-.1-.6-.2-.2-.1-.4-.2-.5-.3-.2-.1-.3-.3-.4-.5v3.2h-1v-8.6h.9zm3.7 2.2c-.1-.3-.2-.5-.3-.7-.2-.2-.4-.4-.6-.5-.2-.1-.5-.2-.9-.2-.3 0-.6.1-.9.2-.2.1-.4.3-.6.5-.2.2-.3.5-.3.8-.1.3-.1.6-.1.9 0 .3 0 .6.1.9.1.3.2.5.3.8.2.2.4.4.6.5.2.1.5.2.9.2s.6-.1.9-.2c.2-.1.4-.3.6-.5.1-.2.2-.5.3-.8.1-.3.1-.6.1-.9 0-.5-.1-.8-.1-1zM227 112.7h1.3l1.5 2.2 1.5-2.2h1.2l-2.1 2.9 2.4 3.3h-1.3l-1.7-2.6-1.7 2.6h-1.2l2.3-3.3-2.2-2.9zM242.9 115.4v.8h-2.6v2.6h-.8v-2.6h-2.6v-.8h2.6v-2.6h.8v2.6h2.6z"/></g><path fill-rule="evenodd" clip-rule="evenodd" fill="#FFF" d="M16.3 276c-9 0-16.3 7.3-16.3 16.3 0 7.2 4.7 13.3 11.1 15.5.8.1 1.1-.4 1.1-.8v-2.8c-4.5 1-5.5-2.2-5.5-2.2-.7-1.9-1.8-2.4-1.8-2.4-1.5-1 .1-1 .1-1 1.6.1 2.5 1.7 2.5 1.7 1.5 2.5 3.8 1.8 4.7 1.4.1-1.1.6-1.8 1-2.2-3.6-.4-7.4-1.8-7.4-8.1 0-1.8.6-3.2 1.7-4.4-.2-.4-.7-2.1.2-4.3 0 0 1.4-.4 4.5 1.7 1.3-.4 2.7-.5 4.1-.5 1.4 0 2.8.2 4.1.5 3.1-2.1 4.5-1.7 4.5-1.7.9 2.2.3 3.9.2 4.3 1 1.1 1.7 2.6 1.7 4.4 0 6.3-3.8 7.6-7.4 8 .6.5 1.1 1.5 1.1 3v4.5c0 .4.3.9 1.1.8 6.5-2.2 11.1-8.3 11.1-15.5-.1-8.9-7.4-16.2-16.4-16.2z"/><g fill="#FFF"><path fill-rule="evenodd" clip-rule="evenodd" d="M214.3 227c-33.3 0-60.4 27-60.4 60.4 0 26.7 17.3 49.3 41.3 57.3 3 .6 4.1-1.3 4.1-2.9 0-1.4-.1-6.2-.1-11.2-16.8 3.7-20.3-7.1-20.3-7.1-2.7-7-6.7-8.8-6.7-8.8-5.5-3.7.4-3.7.4-3.7 6.1.4 9.3 6.2 9.3 6.2 5.4 9.2 14.1 6.6 17.6 5 .5-3.9 2.1-6.6 3.8-8.1-13.4-1.5-27.5-6.7-27.5-29.8 0-6.6 2.4-12 6.2-16.2-.6-1.5-2.7-7.7.6-16 0 0 5.1-1.6 16.6 6.2 4.8-1.3 10-2 15.1-2s10.3.7 15.1 2c11.5-7.8 16.6-6.2 16.6-6.2 3.3 8.3 1.2 14.5.6 16 3.9 4.2 6.2 9.6 6.2 16.2 0 23.2-14.1 28.3-27.6 29.8 2.2 1.9 4.1 5.5 4.1 11.2 0 8.1-.1 14.6-.1 16.6 0 1.6 1.1 3.5 4.1 2.9 24-8 41.3-30.6 41.3-57.3.1-33.5-27-60.5-60.3-60.5z"/><path d="M176.8 313.7c-.1.3-.6.4-1 .2s-.7-.6-.5-.9c.1-.3.6-.4 1-.2s.6.6.5.9zm-.8-.6M179.2 316.4c-.3.3-.9.1-1.2-.3-.4-.4-.5-1-.2-1.3.3-.3.8-.1 1.2.3.4.5.5 1.1.2 1.3zm-.6-.6M181.6 319.9c-.4.3-1 0-1.3-.5-.4-.5-.4-1.2 0-1.4.4-.3 1 0 1.3.5.4.5.4 1.1 0 1.4zm0 0M184.9 323.3c-.3.4-1 .3-1.6-.2-.5-.5-.7-1.2-.3-1.5.3-.4 1-.3 1.6.2.5.4.6 1.1.3 1.5zm0 0M189.4 325.2c-.1.5-.8.7-1.5.5-.7-.2-1.1-.8-1-1.2.1-.5.8-.7 1.5-.5.7.2 1.1.7 1 1.2zm0 0M194.3 325.6c0 .5-.6.9-1.3.9-.7 0-1.3-.4-1.3-.9s.6-.9 1.3-.9c.7 0 1.3.4 1.3.9zm0 0M198.9 324.8c.1.5-.4 1-1.1 1.1-.7.1-1.3-.2-1.4-.7-.1-.5.4-1 1.1-1.1.7-.1 1.3.2 1.4.7zm0 0"/></g><g fill="none" stroke="#1981BC" stroke-linecap="round" stroke-miterlimit="10"><path d="M88.6 221.1v.5"/><path stroke-dasharray="0.9999,1.9999" d="M88.6 223.6v134"/><path d="M88.6 358.6v.5"/></g><g fill="#0072BC"><path d="M-3 373.1c-.4-.3-.9-.4-1.5-.4-.2 0-.5 0-.7.1-.2 0-.4.1-.6.2-.2.1-.3.3-.4.5-.1.2-.2.4-.2.7 0 .3.1.5.2.6.2.2.4.3.6.4l.9.3c.3.1.7.1 1 .2.3.1.7.2 1 .3.3.1.6.3.9.4.3.2.5.4.6.7.2.3.2.6.2 1.1 0 .5-.1.8-.3 1.2-.2.3-.5.6-.8.8-.3.2-.7.4-1.1.4s-.8.1-1.2.1c-.5 0-.9-.1-1.4-.2-.4-.1-.8-.3-1.1-.5-.3-.2-.6-.6-.8-.9-.2-.4-.3-.8-.3-1.3h1.1c0 .4.1.7.2.9.1.3.3.5.6.6.2.2.5.3.8.4.3.1.6.1.9.1.3 0 .5 0 .8-.1.3 0 .5-.1.7-.2.2-.1.4-.3.5-.5.1-.2.2-.5.2-.8 0-.3-.1-.5-.2-.7-.2-.2-.4-.3-.6-.5l-.9-.3c-.3-.1-.7-.1-1-.2-.3-.1-.7-.2-1-.3-.3-.1-.6-.2-.9-.4-.3-.2-.5-.4-.6-.6-.2-.3-.2-.6-.2-1s.1-.8.3-1.1c.2-.3.4-.6.7-.8.3-.2.6-.4 1-.5.4-.1.8-.2 1.1-.2.4 0 .8.1 1.2.2.4.1.7.3 1 .5.3.2.5.5.7.8.2.3.3.7.3 1.2h-1.1c0-.5-.3-1-.6-1.2zM1.2 374.3v.9c.5-.7 1.1-1.1 2-1.1.4 0 .7.1 1 .2.3.2.5.4.7.8.2-.3.5-.6.8-.8.3-.2.7-.3 1.1-.3.3 0 .6 0 .8.1.3.1.5.2.6.3.2.1.3.3.4.6.1.2.1.5.1.8v4.5H8v-4.1-.5c0-.2-.1-.3-.2-.4-.1-.1-.2-.2-.4-.3-.2.1-.4 0-.6 0-.5 0-.9.1-1.2.4-.3.3-.4.7-.4 1.2v3.9h-1v-4.1c0-.2 0-.4-.1-.6 0-.2-.1-.3-.2-.4-.1-.1-.2-.2-.4-.3-.1-.1-.3-.1-.6-.1s-.5.1-.8.2c-.2.1-.4.3-.5.4-.1.2-.2.3-.3.5-.1.2-.1.3-.1.5v3.9h-1v-6.2h1zM15.3 380.6c-.3 0-.5-.1-.6-.2-.2-.1-.2-.4-.2-.7-.3.3-.6.6-1 .7-.4.1-.8.2-1.2.2-.3 0-.5 0-.8-.1-.2-.1-.5-.2-.7-.3-.2-.1-.3-.3-.4-.5-.1-.2-.2-.5-.2-.8 0-.4.1-.6.2-.9.1-.2.3-.4.5-.5.2-.1.4-.2.7-.3.3-.1.5-.1.8-.2.3-.1.5-.1.8-.1.3 0 .5-.1.7-.1.2-.1.3-.1.5-.2.1-.1.2-.2.2-.4s0-.4-.1-.5l-.3-.3c-.1-.1-.3-.1-.4-.1h-.5c-.4 0-.8.1-1.1.2-.3.2-.4.5-.5.9h-1c0-.4.1-.7.2-1 .1-.3.3-.5.6-.6.2-.2.5-.3.8-.4.3-.1.6-.1 1-.1.3 0 .6 0 .8.1.3 0 .5.1.8.2.2.1.4.3.5.5.1.2.2.5.2.9v3.7c0 .1.1.2.3.2.1 0 .2 0 .3-.1v.8c-.4-.1-.6 0-.9 0zm-1.5-3.1c-.2 0-.4.1-.7.1-.2 0-.5.1-.7.1-.2 0-.4.1-.6.2-.2.1-.3.2-.5.3-.1.1-.2.3-.2.6 0 .2 0 .3.1.4l.3.3c.1.1.2.1.4.2h.4c.3 0 .6 0 .9-.1l.6-.3c.2-.1.3-.3.3-.5.1-.2.1-.3.1-.5v-1c0 .1-.1.1-.4.2zM18 371.9v8.6h-1v-8.6h1zM20.7 371.9v8.6h-1v-8.6h1zM-34.5 389.6v-.9h1v-.9c0-.5.1-.9.4-1.1.3-.3.7-.4 1.3-.4h.3c.1 0 .2 0 .3.1v.9c-.1 0-.2-.1-.3-.1h-.3c-.2 0-.4 0-.6.1-.1.1-.2.3-.2.6v.9h1.2v.9h-1.2v5.3h-1v-5.3h-.9zM-30.4 390.5c.1-.4.3-.7.6-1 .3-.3.6-.5.9-.7.4-.2.8-.3 1.3-.3s.9.1 1.3.3c.4.2.7.4.9.7.3.3.4.6.6 1 .1.4.2.8.2 1.3s-.1.9-.2 1.3-.3.7-.6 1c-.3.3-.6.5-.9.7-.4.2-.8.2-1.3.2s-.9-.1-1.3-.2c-.4-.2-.7-.4-.9-.7-.3-.3-.4-.6-.6-1-.1-.4-.2-.8-.2-1.3s0-.9.2-1.3zm1 2.3c.1.3.2.5.4.7.2.2.4.3.6.4.2.1.5.2.8.2.3 0 .5-.1.8-.2.2-.1.4-.3.6-.4.2-.2.3-.4.4-.7.1-.3.1-.6.1-1s0-.7-.1-1c-.1-.3-.2-.5-.4-.7-.2-.2-.4-.4-.6-.5-.2-.1-.5-.2-.8-.2-.3 0-.5.1-.8.2-.2.1-.4.3-.6.5-.2.2-.3.4-.4.7-.1.3-.1.6-.1 1 0 .3 0 .7.1 1zM-22.5 388.7v1.3c.2-.5.6-.9.9-1.1.4-.2.8-.4 1.4-.3v1.1c-.4 0-.8.1-1 .2-.3.1-.5.3-.7.5-.2.2-.3.5-.4.8-.1.3-.1.7-.1 1.1v2.8h-1v-6.2h.9zM-13.6 394.9v-6.1h-2.2v-.8c.3 0 .6 0 .8-.1.3 0 .5-.1.7-.2.2-.1.4-.3.6-.5.2-.2.3-.5.3-.8h.8v8.5h-1zM-5.6 387.6c-.2-.2-.6-.3-1-.3s-.8.1-1 .3c-.3.2-.5.5-.6.8-.1.3-.2.7-.3 1.1-.1.4-.1.7-.1 1.1.2-.4.5-.7.9-.9.4-.2.8-.3 1.2-.3.4 0 .8.1 1.1.2.3.1.6.3.8.6.2.2.4.5.5.9.1.3.2.7.2 1.1 0 .3 0 .6-.1 1-.1.3-.3.6-.5.9-.2.3-.5.5-.9.7-.4.2-.8.3-1.4.3-.6 0-1.1-.1-1.5-.4-.4-.3-.7-.6-.9-1-.2-.4-.3-.8-.4-1.3-.1-.5-.1-.9-.1-1.4 0-.6 0-1.1.1-1.7.1-.5.3-1 .5-1.5.2-.4.6-.8 1-1 .4-.3.9-.4 1.5-.4.7 0 1.3.2 1.7.6s.7.9.7 1.6h-1c0-.5-.2-.8-.4-1zm-1.9 2.8c-.2.1-.4.2-.6.4-.2.2-.3.4-.3.6-.1.2-.1.5-.1.8 0 .3 0 .5.1.7l.3.6c.1.2.3.3.6.4.2.1.5.2.8.2.3 0 .5 0 .7-.2.2-.1.4-.2.5-.4.1-.2.3-.4.3-.6.1-.2.1-.5.1-.7 0-.3 0-.5-.1-.8l-.3-.6c-.1-.2-.3-.3-.5-.4-.2-.1-.5-.2-.8-.2-.2.1-.5.1-.7.2zM-1.7 388.7v.8c.2-.3.4-.6.8-.8.4-.2.8-.2 1.2-.2.5 0 .9.1 1.3.3.4.2.7.4.9.7.2.3.4.6.5 1 .1.4.2.8.2 1.2 0 .4-.1.9-.2 1.2-.1.4-.3.7-.5 1-.2.3-.5.5-.9.7-.4.2-.8.3-1.2.3h-.5c-.2 0-.4-.1-.6-.2-.2-.1-.4-.2-.5-.3-.2-.1-.3-.3-.4-.5v3.2h-1v-8.6h.9zm3.7 2.2c-.1-.3-.2-.5-.3-.7-.2-.2-.4-.4-.6-.5-.2-.1-.5-.2-.9-.2-.3 0-.6.1-.9.2-.2.1-.4.3-.6.5-.2.2-.3.5-.3.8-.1.3-.1.6-.1.9 0 .3 0 .6.1.9.1.3.2.5.3.8.2.2.4.4.6.5.2.1.5.2.9.2s.6-.1.9-.2c.2-.1.4-.3.6-.5.1-.2.2-.5.3-.8.1-.3.1-.6.1-.9 0-.5 0-.8-.1-1zM3.9 388.7h1.3l1.5 2.2 1.5-2.2h1.2l-2.1 2.9 2.4 3.3H8.4l-1.7-2.6-1.7 2.6H3.7l2.3-3.3-2.1-2.9zM13.9 391v1h-3.5v-1h3.5zM17.8 394.9v-6.1h-2.2v-.8c.3 0 .6 0 .8-.1.3 0 .5-.1.7-.2.2-.1.4-.3.6-.5.2-.2.3-.5.3-.8h.8v8.5h-1zM21.8 388.2c.1-.4.3-.7.5-1 .2-.3.5-.5.9-.6.4-.2.8-.2 1.2-.2.4 0 .7.1 1 .2.3.1.6.3.8.5.2.2.4.5.6.8.1.3.2.7.2 1.1 0 .4-.1.7-.2 1-.1.3-.3.5-.5.8-.2.2-.4.4-.7.6-.2.2-.5.4-.8.5-.3.2-.5.3-.8.5-.3.2-.5.3-.7.5l-.6.6c-.2.2-.3.4-.3.7H27v.9h-5.6c0-.5.1-.9.3-1.3.1-.4.3-.7.5-.9.2-.3.5-.5.7-.7l.9-.6c.4-.2.7-.4.9-.6.3-.2.5-.4.7-.6.2-.2.3-.4.4-.6s.1-.5.1-.8c0-.2 0-.4-.1-.6-.1-.2-.2-.3-.4-.5-.1-.1-.3-.2-.5-.3-.2-.1-.4-.1-.6-.1-.3 0-.6.1-.8.2-.2.1-.4.3-.5.5-.1.2-.2.4-.3.7-.1.3-.1.5-.1.8h-1c.1-.8.1-1.2.2-1.5zM28.4 389.7c0-.3.1-.7.1-1l.3-.9c.1-.3.3-.5.5-.8.2-.2.5-.4.8-.5.3-.1.7-.2 1.1-.2.4 0 .8.1 1.1.2.3.1.6.3.8.5.2.2.4.5.5.8l.3.9c.1.3.1.6.1 1v2c0 .3-.1.7-.1 1l-.3.9c-.1.3-.3.5-.5.8-.2.2-.5.4-.8.5-.3.1-.7.2-1.1.2-.4 0-.8-.1-1.1-.2-.3-.1-.6-.3-.8-.5-.2-.2-.4-.5-.5-.8l-.3-.9c-.1-.3-.1-.6-.1-1v-1-1zm1.1 2.1c0 .4.1.8.2 1.1.1.3.3.6.5.9.2.2.6.4 1 .4s.8-.1 1-.4c.2-.2.4-.5.5-.9.1-.3.2-.7.2-1.1v-1.1-.7c0-.3 0-.5-.1-.8 0-.3-.1-.5-.2-.7-.1-.2-.2-.5-.3-.6-.1-.2-.3-.3-.5-.4-.2-.1-.4-.2-.7-.2s-.5.1-.7.2c-.2.1-.4.3-.5.4l-.3.6c-.1.2-.1.5-.2.7 0 .3-.1.5-.1.8v.7c.1.3.1.7.2 1.1zM36.3 388.7v.8c.2-.3.4-.6.8-.8.4-.2.8-.2 1.2-.2.5 0 .9.1 1.3.3.4.2.7.4.9.7.2.3.4.6.5 1 .1.4.2.8.2 1.2 0 .4-.1.9-.2 1.2-.1.4-.3.7-.5 1-.2.3-.5.5-.9.7-.4.2-.8.3-1.2.3h-.5c-.2 0-.4-.1-.6-.2-.2-.1-.4-.2-.5-.3-.2-.1-.3-.3-.4-.5v3.2h-1v-8.6h.9zm3.7 2.2c-.1-.3-.2-.5-.3-.7-.2-.2-.4-.4-.6-.5-.2-.1-.5-.2-.9-.2-.3 0-.6.1-.9.2-.2.1-.4.3-.6.5-.2.2-.3.5-.3.8-.1.3-.1.6-.1.9 0 .3 0 .6.1.9.1.3.2.5.3.8.2.2.4.4.6.5.2.1.5.2.9.2s.6-.1.9-.2c.2-.1.4-.3.6-.5.1-.2.2-.5.3-.8.1-.3.1-.6.1-.9 0-.5 0-.8-.1-1zM41.9 388.7h1.3l1.5 2.2 1.5-2.2h1.2l-2.1 2.9 2.4 3.3h-1.3l-1.7-2.6-1.7 2.6h-1.2l2.3-3.3-2.2-2.9z"/></g><g fill="#0072BC"><path d="M199.3 371.9v7.6h4.5v1h-5.7v-8.6h1.2zM209.4 380.6c-.3 0-.5-.1-.6-.2-.2-.1-.2-.4-.2-.7-.3.3-.6.6-1 .7-.4.1-.8.2-1.2.2-.3 0-.5 0-.8-.1-.2-.1-.5-.2-.7-.3-.2-.1-.3-.3-.4-.5-.1-.2-.2-.5-.2-.8 0-.4.1-.6.2-.9.1-.2.3-.4.5-.5.2-.1.4-.2.7-.3.3-.1.5-.1.8-.2.3-.1.5-.1.8-.1.3 0 .5-.1.7-.1.2-.1.3-.1.5-.2.1-.1.2-.2.2-.4s0-.4-.1-.5l-.3-.3c-.1-.1-.3-.1-.4-.1h-.5c-.4 0-.8.1-1.1.2-.3.2-.4.5-.5.9h-1c0-.4.1-.7.2-1 .1-.3.3-.5.6-.6.2-.2.5-.3.8-.4.3-.1.6-.1 1-.1.3 0 .6 0 .8.1.3 0 .5.1.8.2.2.1.4.3.5.5.1.2.2.5.2.9v3.7c0 .1.1.2.3.2.1 0 .2 0 .3-.1v.8c-.3-.1-.5 0-.9 0zm-1.4-3.1c-.2 0-.4.1-.7.1-.2 0-.5.1-.7.1-.2 0-.4.1-.6.2-.2.1-.3.2-.4.3-.1.1-.2.4-.2.6 0 .2 0 .3.1.4l.3.3c.1.1.2.1.4.2h.4c.3 0 .6 0 .9-.1l.6-.3c.2-.1.3-.3.3-.5.1-.2.1-.3.1-.5v-1c-.1.1-.3.1-.5.2zM212 374.3v1.3c.2-.5.6-.9.9-1.1.4-.2.8-.4 1.4-.3v1.1c-.4 0-.8.1-1 .2-.3.1-.5.3-.7.5-.2.2-.3.5-.4.8-.1.3-.1.7-.1 1.1v2.8h-1v-6.2h.9zM219.4 382.2c-.5.5-1.2.8-2.2.8-.3 0-.6 0-.9-.1-.3-.1-.6-.2-.8-.3-.2-.1-.4-.3-.6-.6-.2-.2-.2-.5-.3-.9h1c0 .2.1.3.2.5.1.1.2.2.4.3.2.1.3.1.5.2.2 0 .4.1.5.1.3 0 .6-.1.9-.2.2-.1.4-.3.6-.5.2-.2.3-.4.3-.7.1-.3.1-.6.1-.9v-.4c-.2.4-.4.7-.8.8-.4.2-.7.3-1.1.3-.5 0-.9-.1-1.2-.3-.3-.2-.6-.4-.9-.7-.2-.3-.4-.6-.5-1-.1-.4-.2-.8-.2-1.2 0-.4 0-.7.1-1.1.1-.4.3-.7.5-1.1.2-.3.5-.6.9-.8.4-.2.8-.3 1.4-.3.4 0 .8.1 1.1.3.3.2.6.4.8.8v-.9h1v5.7c-.1 1-.3 1.7-.8 2.2zm-1.3-2.8c.2-.1.4-.3.6-.6.1-.2.2-.5.3-.8.1-.3.1-.6.1-.9 0-.3 0-.5-.1-.8-.1-.3-.2-.5-.3-.7-.1-.2-.3-.4-.5-.5-.2-.1-.5-.2-.8-.2-.3 0-.6.1-.8.2-.2.1-.4.3-.6.5-.1.2-.3.4-.3.7-.1.3-.1.6-.1.9 0 .3 0 .6.1.8.1.3.2.5.3.8.1.2.3.4.5.6.2.1.5.2.8.2.3 0 .6 0 .8-.2zM226.1 380.1c-.5.4-1 .5-1.8.5-.5 0-.9-.1-1.3-.2-.4-.2-.7-.4-.9-.7-.2-.3-.4-.6-.6-1-.1-.4-.2-.8-.2-1.3s.1-.9.2-1.3.3-.7.6-1c.3-.3.6-.5.9-.7.4-.2.7-.2 1.2-.2.6 0 1 .1 1.4.3.4.2.7.5.9.9.2.4.4.7.5 1.2.1.4.1.8.1 1.2h-4.6c0 .3 0 .5.1.8.1.2.2.5.3.6.2.2.4.3.6.5.2.1.5.2.9.2s.8-.1 1.1-.3c.3-.2.5-.5.5-.9h1c-.2.5-.5 1-.9 1.4zm-.3-4c-.1-.2-.2-.4-.4-.6-.2-.2-.3-.3-.6-.4s-.4-.1-.7-.1c-.3 0-.5 0-.7.1s-.4.2-.5.4c-.2.2-.3.3-.4.6-.1.2-.1.4-.2.7h3.6c.1-.3 0-.5-.1-.7zM229 374.3v1.3c.2-.5.6-.9.9-1.1.4-.2.8-.4 1.4-.3v1.1c-.4 0-.8.1-1 .2-.3.1-.5.3-.7.5-.2.2-.3.5-.4.8-.1.3-.1.7-.1 1.1v2.8h-1v-6.2h.9zM181.9 389.6v-.9h1v-.9c0-.5.1-.9.4-1.1.3-.3.7-.4 1.3-.4h.3c.1 0 .2 0 .3.1v.9c-.1 0-.2-.1-.3-.1h-.3c-.2 0-.4 0-.6.1-.1.1-.2.3-.2.6v.9h1.2v.9h-1v5.3h-1v-5.3h-1.1zM186 390.5c.1-.4.3-.7.6-1 .3-.3.6-.5.9-.7.4-.2.8-.3 1.3-.3s.9.1 1.3.3c.4.2.7.4.9.7.3.3.4.6.6 1 .1.4.2.8.2 1.3s-.1.9-.2 1.3-.3.7-.6 1c-.3.3-.6.5-.9.7-.4.2-.8.2-1.3.2s-.9-.1-1.3-.2c-.4-.2-.7-.4-.9-.7-.3-.3-.4-.6-.6-1-.1-.4-.2-.8-.2-1.3s0-.9.2-1.3zm1 2.3c.1.3.2.5.4.7.2.2.4.3.6.5.2.1.5.2.8.2.3 0 .5-.1.8-.2.2-.1.4-.3.6-.5.2-.2.3-.4.4-.7.1-.3.1-.6.1-1s0-.7-.1-1c-.1-.3-.2-.5-.4-.7-.2-.2-.4-.4-.6-.5-.2-.1-.5-.2-.8-.2-.3 0-.5.1-.8.2-.2.1-.4.3-.6.5-.2.2-.3.4-.4.7-.1.3-.2.6-.2 1 .1.3.1.7.2 1zM193.9 388.7v1.3c.2-.5.6-.9.9-1.1.4-.2.8-.4 1.4-.3v1.1c-.4 0-.8.1-1 .2-.3.1-.5.3-.7.5-.2.2-.3.5-.4.8-.1.3-.1.7-.1 1.1v2.8h-1v-6.2h.9zM202.8 394.9v-6.1h-2.2v-.8c.3 0 .6 0 .8-.1.3 0 .5-.1.7-.2.2-.1.4-.3.6-.5.2-.2.3-.5.3-.8h.8v8.5h-1zM206.9 388.2c.1-.4.3-.7.5-1 .2-.3.5-.5.9-.6.4-.2.8-.2 1.2-.2.4 0 .7.1 1 .2.3.1.6.3.8.5.2.2.4.5.6.8.1.3.2.7.2 1.1 0 .4-.1.7-.2 1-.1.3-.3.5-.5.8-.2.2-.4.4-.7.6-.2.2-.5.4-.8.5-.3.2-.5.3-.8.5-.3.2-.5.3-.7.5l-.6.6c-.2.2-.3.4-.3.7h4.4v.9h-5.6c0-.5.1-.9.3-1.3.1-.4.3-.7.5-.9.2-.3.5-.5.7-.7l.9-.6c.4-.2.7-.4.9-.6.3-.2.5-.4.7-.6.2-.2.3-.4.4-.6.1-.2.1-.5.1-.8 0-.2 0-.4-.1-.6-.1-.2-.2-.3-.4-.5-.1-.1-.3-.2-.5-.3-.2-.1-.4-.1-.6-.1-.3 0-.6.1-.8.2-.2.1-.4.3-.5.5-.1.2-.2.4-.3.7-.1.3-.1.5-.1.8h-1c.2-.8.3-1.2.4-1.5zM213.4 389.7c0-.3.1-.7.1-1l.3-.9c.1-.3.3-.5.5-.8.2-.2.5-.4.8-.5.3-.1.7-.2 1.1-.2.4 0 .8.1 1.1.2.3.1.6.3.8.5.2.2.4.5.5.8l.3.9c.1.3.1.6.1 1v2c0 .3-.1.7-.1 1l-.3.9c-.1.3-.3.5-.5.8-.2.2-.5.4-.8.5-.3.1-.7.2-1.1.2-.4 0-.8-.1-1.1-.2-.3-.1-.6-.3-.8-.5-.2-.2-.4-.5-.5-.8l-.3-.9c-.1-.3-.1-.6-.1-1v-1-1zm1.1 2c0 .4.1.8.2 1.1.1.3.3.6.5.9.2.2.6.4 1 .4s.8-.1 1-.4c.2-.2.4-.5.5-.9.1-.3.2-.7.2-1.1v-1.1-.7c0-.3 0-.5-.1-.8 0-.3-.1-.5-.2-.7l-.3-.6c-.1-.2-.3-.3-.5-.4-.2-.1-.4-.2-.7-.2-.3 0-.5.1-.7.2-.2.1-.4.3-.5.4l-.3.6c-.1.2-.1.5-.2.7 0 .3-.1.5-.1.8v.7c.2.4.2.8.2 1.1zM221.4 388.7v.8c.2-.3.4-.6.8-.8.4-.2.8-.2 1.2-.2.5 0 .9.1 1.3.3.4.2.7.4.9.7.2.3.4.6.5 1 .1.4.2.8.2 1.2 0 .4-.1.9-.2 1.2-.1.4-.3.7-.5 1-.2.3-.5.5-.9.7-.4.2-.8.3-1.2.3h-.5c-.2 0-.4-.1-.6-.2-.2-.1-.4-.2-.5-.3-.2-.1-.3-.3-.4-.5v3.2h-1v-8.6h.9zm3.7 2.2c-.1-.3-.2-.5-.3-.7-.2-.2-.4-.4-.6-.5-.2-.1-.5-.2-.9-.2-.3 0-.6.1-.9.2-.2.1-.4.3-.6.5-.2.2-.3.5-.3.8-.1.3-.1.6-.1.9 0 .3 0 .6.1.9.1.3.2.5.3.8.2.2.4.4.6.5.2.1.5.2.9.2s.6-.1.9-.2c.2-.1.4-.3.6-.5.1-.2.2-.5.3-.8.1-.3.1-.6.1-.9 0-.5-.1-.8-.1-1zM227 388.7h1.3l1.5 2.2 1.5-2.2h1.2l-2.1 2.9 2.4 3.3h-1.3l-1.7-2.6-1.7 2.6h-1.2l2.3-3.3-2.2-2.9zM242.9 391.4v.8h-2.6v2.6h-.8v-2.6h-2.6v-.8h2.6v-2.6h.8v2.6h2.6z"/></g></svg>
